<?xml version="1.0" encoding="UTF-8"?>
<svg width="512" height="512" enable-background="new 0 0 64 64" version="1.1" viewBox="0 0 64 64" xmlns="http://www.w3.org/2000/svg">
 <circle cx="46" cy="17.875" r="15.625" fill="#b4c850" stroke-linecap="round" stroke-width="1.875"/>
 <g fill="#fff" stroke-linecap="round" stroke-width="1.875">
  <rect x="2.5" y="54.375" width="15" height="3.125"/>
  <rect x="24.375" y="55" width="15.625" height="2.5"/>
  <path d="m36.25 34.375h-25.625s-4.375-1.25-4.375-6.25 5.625-6.25 5.625-6.25 0.625-10 11.25-10 10.625 10.625 10.625 10.625 10-0.625 8.125 5.625-5.625 6.25-5.625 6.25z"/>
  <rect x="46.25" y="46.25" width="15.625" height="11.25"/>
 </g>
 <rect x="24.375" y="46.25" width="15.625" height="7.5" fill="#b4c850" stroke-linecap="round" stroke-width="1.875"/>
 <rect x="2.5" y="46.25" width="15" height="7.5" fill="#b4c850" stroke-linecap="round" stroke-width="1.875"/>
 <path d="m60 45h-5v-6h-6v-4.281c7.946-1.423 14-8.37 14-16.719 0-9.374-7.626-17-17-17-7.526 0-14.134 4.996-16.274 12.081-1.924-1.31-4.239-2.081-6.726-2.081-5.958 0-10.902 4.263-11.837 10.05-3.467.415-6.163 3.374-6.163 6.95 0 3.859 3.14 7 7 7h3v4h-6v6h-5c-1.654 0-3 1.346-3 3v8c0 1.654 1.346 3 3 3h2v2h-2v2h11.999v-2h-1.999v-2h2c1.654 0 3-1.346 3-3v-5h4v5c0 1.654 1.346 3 3 3h2v2h-2v2h11.999v-2h-1.999v-2h2c1.654 0 3-1.346 3-3v-5h4v5c0 1.654 1.346 3 3 3h2v2h-2v2h11.999v-2h-1.999v-2h2c1.654 0 3-1.346 3-3v-8c0-1.654-1.346-3-3-3zm1 3v5h-14v-5c0-.552.449-1 1-1h12c.551 0 1 .448 1 1zm-23.965-29c.021.71.063 1.411.13 2.105-.38-.064-.767-.105-1.165-.105-.389 0-.778.033-1.164.1-.115-.724-.296-1.426-.534-2.1zm8.965-16c2.232 0 4.254 2.387 5.546 6h-11.092c1.292-3.613 3.314-6 5.546-6zm6.159 8c.462 1.821.746 3.858.816 6h-13.951c.07-2.142.354-4.179.816-6zm8.79 6h-5.975c-.063-2.139-.322-4.16-.752-6h5.034c.961 1.812 1.55 3.845 1.693 6zm0 2c-.143 2.155-.732 4.188-1.693 6h-5.034c.43-1.84.689-3.861.752-6zm-21.699 2.806c-.116-.917-.185-1.855-.215-2.806h13.941c-.07 2.142-.354 4.179-.816 6h-9.845c-.652-1.366-1.729-2.49-3.065-3.194zm3.67 5.194h8.626c-1.292 3.613-3.314 6-5.546 6-1.543 0-3.051-.231-4.498-.687.935-1.19 1.498-2.686 1.498-4.313 0-.34-.033-.672-.08-1zm8.178 5.089c1.038-1.327 1.908-3.066 2.566-5.089h4.308c-1.737 2.304-4.115 4.087-6.874 5.089zm6.874-23.089h-4.308c-.658-2.023-1.528-3.762-2.566-5.089 2.759 1.002 5.137 2.785 6.874 5.089zm-17.058-5.106c-1.043 1.329-1.917 3.074-2.578 5.106h-4.324c1.752-2.321 4.151-4.109 6.902-5.106zm-8.17 7.106h5.034c-.43 1.84-.689 3.861-.752 6h-3.649c-.536-.927-1.193-1.772-1.947-2.519.296-1.231.738-2.397 1.314-3.481zm-25.744 17c0-2.756 2.242-4.999 4.991-4.999h.002l.966.056.087-.964c.467-5.184 4.746-9.093 9.954-9.093 5.286 0 9.665 4.137 9.969 9.418l.077 1.337 1.26-.453c.556-.2 1.126-.302 1.694-.302 2.757 0 5 2.243 5 5s-2.243 5-5 5h-24c-2.757 0-5-2.243-5-5zm-3 19h12c.551 0 1 .448 1 1v5h-14v-5c0-.552.449-1 1-1zm8 14h-4v-2h4zm4-4h-12c-.551 0-1-.448-1-1v-1h14v1c0 .552-.449 1-1 1zm3-8v-1c0-1.654-1.346-3-3-3h-5v-4h6v-6h14v10h-5c-1.654 0-3 1.346-3 3v1zm20 4h-14v-5c0-.552.449-1 1-1h12c.551 0 1 .448 1 1zm-5 8h-4v-2h4zm4-4h-12c-.551 0-1-.448-1-1v-1h14v1c0 .552-.449 1-1 1zm3-8v-1c0-1.654-1.346-3-3-3h-5v-10h3c1.425 0 2.751-.43 3.858-1.165 1.958.761 4.018 1.165 6.142 1.165.338 0 .667-.031 1-.051v6.051h6v4h-5c-1.654 0-3 1.346-3 3v1zm15 12h-4v-2h4zm4-4h-12c-.551 0-1-.448-1-1v-1h14v1c0 .552-.449 1-1 1z"/>
 <path d="m16 25c-1.654 0-3 1.346-3 3s1.346 3 3 3 3-1.346 3-3-1.346-3-3-3zm0 4c-.551 0-1-.448-1-1s.449-1 1-1 1 .448 1 1-.449 1-1 1z"/>
 <path d="m24 25c-1.654 0-3 1.346-3 3s1.346 3 3 3 3-1.346 3-3-1.346-3-3-3zm0 4c-.551 0-1-.448-1-1s.449-1 1-1 1 .448 1 1-.449 1-1 1z"/>
 <path d="m32 25c-1.654 0-3 1.346-3 3s1.346 3 3 3 3-1.346 3-3-1.346-3-3-3zm0 4c-.551 0-1-.448-1-1s.449-1 1-1 1 .448 1 1-.449 1-1 1z"/>
 <path d="m23 15v2c2.636 0 5.001 1.762 5.751 4.285l1.917-.57c-1.001-3.365-4.154-5.715-7.668-5.715z"/>
</svg>
