<?xml version="1.0" encoding="UTF-8"?>
<svg width="512" height="512" clip-rule="evenodd" fill-rule="evenodd" stroke-linejoin="round" stroke-miterlimit="2" version="1.1" viewBox="0 0 64 64" xmlns="http://www.w3.org/2000/svg">
 <rect x="4.125" y="6.125" width="43.25" height="47.5" ry="1.875" fill="#b4c850" stroke-linecap="round" stroke-width="1.8752"/>
 <path d="m48.37 28.003v-20c0-1.6569-1.3435-3.0009-3.0008-3.0009h-39.374c-1.6573 0-3.0008 1.344-3.0008 3.0009v44c0 1.6569 1.3435 3.0009 3.0008 3.0009h39.374c0.54853 0 1.0589-0.14592 1.5019-0.40319 0.47813-0.27456 0.63947-0.88702 0.36373-1.3651-0.27573-0.47807-0.8888-0.64127-1.3669-0.36479-0.14667 0.08448-0.3168 0.13248-0.49867 0.13248h-39.374c-0.55147 0-1.0003-0.44735-1.0003-1.0003v-44c0-0.55295 0.4488-1.0003 1.0003-1.0003h39.374c0.55146 0 1.0003 0.44735 1.0003 1.0003v20c0 0.55103 0.4488 1.0003 1.0003 1.0003 0.55147 0 1.0003-0.44927 1.0003-1.0003z" stroke-width="2.373"/>
 <path d="m37 10.375-4.875 4.875 4.625 4.625z" fill="#fff" stroke-linecap="round" stroke-width="1.875"/>
 <path d="m38 16.00064v4c0 .404-.244.769-.617.924-.374.155-.804.069-1.09-.217l-5-5c-.391-.39-.391-1.024 0-1.414l5-5c.286-.286.716-.372 1.09-.217.373.155.617.52.617.924v4h2c.796 0 1.559.316 2.121.879.563.562.879 1.325.879 2.121v9c0 .552-.448 1-1 1s-1-.448-1-1c0 0 0-5.828 0-9 0-.265-.105-.52-.293-.707-.187-.188-.442-.293-.707-.293zm-4.586-1 2.586 2.586v-5.172z"/>
 <g transform="matrix(.99999 0 0 .99999 2.5003 .6246)">
  <circle cx="40.875" cy="39.001" r="9.1251" fill="#fff" stroke-linecap="round" stroke-width="1.8736"/>
  <rect transform="rotate(-45)" x="-.52814" y="70.395" width="4" height="11" fill="#fff" stroke-linecap="round" stroke-width="1.875"/>
  <path d="m47.327 46.743c-1.724 1.411-3.927 2.258-6.327 2.258-5.519 0-10-4.481-10-10s4.481-10 10-10 10 4.481 10 10c0 2.4-0.847 4.603-2.258 6.327l2.258 2.259 0.793-0.793c0.39-0.391 1.024-0.391 1.414 0l7.5 7.5c0.391 0.39 0.391 1.024 0 1.414l-3 3c-0.39 0.391-1.024 0.391-1.414 0l-7.5-7.5c-0.391-0.39-0.391-1.024 0-1.414l0.793-0.793zm3.587 3.758 6.086 6.086 1.586-1.586-6.086-6.086zm-9.914-19.5c4.415 0 8 3.585 8 8s-3.585 8-8 8-8-3.585-8-8 3.585-8 8-8z"/>
 </g>
 <rect x="8.375" y="10.5" width="19.375" height="7.125" fill="#fff" stroke-linecap="round" stroke-width="1.8719"/>
 <path d="m28.998 12c0-0.7956-0.316-1.5586-0.87866-2.1212s-1.3253-0.87881-2.1213-0.87881h-16c-0.796 0-1.5587 0.31619-2.1213 0.87881-0.56267 0.56262-0.87866 1.3256-0.87866 2.1212v4.0014c0 0.7956 0.316 1.5586 0.87866 2.1212 0.56267 0.56262 1.3253 0.87881 2.1213 0.87881h16c0.796 0 1.5587-0.31619 2.1213-0.87881s0.87866-1.3256 0.87866-2.1212zm-2 0v4.0014c0 0.26499-0.10533 0.51941-0.29333 0.70695-0.18667 0.18754-0.44133 0.29283-0.70666 0.29283h-16c-0.26533 0-0.52-0.10529-0.70666-0.29283-0.188-0.18754-0.29333-0.44196-0.29333-0.70695v-4.0014c0-0.26531 0.10533-0.51941 0.29333-0.70695 0.18667-0.18754 0.44133-0.29283 0.70666-0.29283h16c0.26533 0 0.52 0.10529 0.70666 0.29283 0.188 0.18754 0.29333 0.44164 0.29333 0.70695z" stroke-width=".653"/>
 <g transform="scale(-1 1)" stroke-width=".2">
  <path d="m-12 14.001a1 1 0 0 1-1 1 1 1 0 0 1-1-1 1 1 0 0 1 1-1 1 1 0 0 1 1 1z"/>
  <path d="m-10 24.001a1 1 0 0 1-1 1 1 1 0 0 1-1-1 1 1 0 0 1 1-1 1 1 0 0 1 1 1z"/>
  <path d="m-10 32.001a1 1 0 0 1-1 1 1 1 0 0 1-1-1 1 1 0 0 1 1-1 1 1 0 0 1 1 1z"/>
  <path d="m-10 40.001a1 1 0 0 1-1 1 1 1 0 0 1-1-1 1 1 0 0 1 1-1 1 1 0 0 1 1 1z"/>
  <path d="m-10 48.001a1 1 0 0 1-1 1 1 1 0 0 1-1-1 1 1 0 0 1 1-1 1 1 0 0 1 1 1z"/>
 </g>
 <g stroke-width=".434">
  <path d="m23 13h-6c-0.55197 0-0.99991 0.448-0.99991 1s0.44794 1 0.99991 1h6c0.55197 0 0.99991-0.448 0.99991-1s-0.44794-1-0.99991-1z"/>
  <path d="m25 23h-10c-0.55197 0-0.99991 0.448-0.99991 1s0.44794 1 0.99991 1h10c0.55197 0 0.99991-0.448 0.99991-1s-0.44794-1-0.99991-1z"/>
  <path d="m25 31h-10c-0.55197 0-0.99991 0.448-0.99991 1s0.44794 1 0.99991 1h10c0.55197 0 0.99991-0.448 0.99991-1s-0.44794-1-0.99991-1z"/>
  <path d="m25 39h-10c-0.55197 0-0.99991 0.448-0.99991 1s0.44794 1 0.99991 1h10c0.55197 0 0.99991-0.448 0.99991-1s-0.44794-1-0.99991-1z"/>
  <path d="m25 47h-10c-0.55197 0-0.99991 0.448-0.99991 1s0.44794 1 0.99991 1h10c0.55197 0 0.99991-0.448 0.99991-1s-0.44794-1-0.99991-1z"/>
 </g>
</svg>
