<?xml version="1.0" encoding="UTF-8"?>
<svg width="512" height="512" version="1.1" viewBox="0 0 60 60" xmlns="http://www.w3.org/2000/svg">
 <rect x="1.2891" y="1.2891" width="57.422" height="47.344" fill="#fff" stroke-width=".11756"/>
 <path d="m1.1719 43.008 0.11719 5.7422 20.742 0.11719-2.9297 5.8594-5.3906 0.35156v3.9844l32.578 0.11719v-4.1016h-5.2734l-2.9297-6.4453h20.508v-5.625z" fill="#b7b7b7" stroke-width=".11701"/>
 <rect x="36.562" y="33.516" width="14.648" height="4.2188" fill="#b4c850" stroke-width=".11633"/>
 <path d="m4.6875 13.477 7.6172-7.6172 5.2734 4.6875 6.4453-4.6875 7.0312 7.6172-2.9297 3.5156-4.1016-4.1016-0.58594 11.719h-11.133l-0.58594-11.719-4.1016 4.1016z" fill="#b4c850" stroke-width=".11719"/>
 <g fill="none" fill-rule="evenodd">
  <g id="040---Online-Shopping" transform="translate(-1)" fill="#000" fill-rule="nonzero">
   <path id="Shape" d="m58 0h-54c-1.7056 0.054413-3.0466 1.4771-3 3.183v43.637c-0.044877 1.7047 1.2956 3.1256 3 3.18h17.382l-2 4h-3.382c-1.6569 0-3 1.3431-3 3s1.3431 3 3 3h30c1.6569 0 3-1.3431 3-3s-1.3431-3-3-3h-3.382l-2-4h17.382c1.7048-0.054418 3.0454-1.4759 3-3.181v-43.636c0.046558-1.7059-1.2944-3.1286-3-3.183zm-11 57c0 0.55228-0.44772 1-1 1h-30c-0.55228 0-1-0.44772-1-1s0.44772-1 1-1h30c0.55228 0 1 0.44772 1 1zm-6.618-3h-18.764l2-4h14.764zm17.618-6h-54c-0.5958-0.061598-1.037-0.58217-1-1.18v-2.82h4c0.55228 0 1-0.44772 1-1s-0.44772-1-1-1h-4v-38.817c-0.038636-0.59896 0.40297-1.1214 1-1.183h54c0.59662 0.061615 1.0381 0.58342 1 1.182v38.818h-48c-0.55228 0-1 0.44772-1 1s0.44772 1 1 1h48v2.82c0.036958 0.59783-0.4042 1.1184-1 1.18z"/>
   <path d="m10.222 17.4 1.778-1.886v7.486c0 1.6569 1.3431 3 3 3h8c1.6569 0 3-1.3431 3-3v-7.486l1.8 1.9c0.41007 0.40981 0.97779 0.62151 1.5561 0.58026s1.1102-0.33139 1.4579-0.79526l1.786-2.381c0.58814-0.79186 0.51442-1.8936-0.174-2.6l-6.133-6.338c-0.56093-0.56508-1.3248-0.882-2.121-0.88h-10.344c-0.80174-0.0011925-1.5703 0.31986-2.133 0.891l-6.11 6.309c-0.70069 0.7068-0.77933 1.8197-0.185 2.618l1.788 2.382c0.34992 0.46857 0.88738 0.76051 1.4709 0.79898 0.58354 0.038467 1.1547-0.1804 1.5631-0.59898zm11.622-10.4c-0.32901 1.2741-1.5337 2.1213-2.844 2-1.3102 0.12085-2.5146-0.72618-2.844-2zm-14.832 6.606 6.109-6.312c0.18788-0.18709 0.44186-0.2927 0.707-0.294h0.272c0.35138 2.4009 2.4774 4.1364 4.9 4 2.4226 0.13639 4.5486-1.5991 4.9-4h0.276c0.26121-0.0010315 0.51245 0.10018 0.7 0.282l6.124 6.335-1.769 2.4-3.231-3.417v-0.6c0-0.55228-0.44772-1-1-1s-1 0.44772-1 1v11c0 0.55228-0.44772 1-1 1h-8c-0.55228 0-1-0.44772-1-1v-11c0-0.55228-0.44772-1-1-1s-1 0.44772-1 1v0.6l-3.212 3.4z"/>
   <path d="m14 31c0-1.6569-1.3431-3-3-3-1.6569 0-3 1.3431-3 3s1.3431 3 3 3c1.6569 0 3-1.3431 3-3zm-4 0c0-0.55228 0.44772-1 1-1s1 0.44772 1 1-0.44772 1-1 1-1-0.44772-1-1z"/>
   <path d="m22 31c0-1.6569-1.3431-3-3-3s-3 1.3431-3 3 1.3431 3 3 3 3-1.3431 3-3zm-4 0c0-0.55228 0.44772-1 1-1s1 0.44772 1 1-0.44772 1-1 1-1-0.44772-1-1z"/>
   <path d="m27 28c-1.6569 0-3 1.3431-3 3s1.3431 3 3 3 3-1.3431 3-3-1.3431-3-3-3zm0 4c-0.55228 0-1-0.44772-1-1s0.44772-1 1-1 1 0.44772 1 1-0.44772 1-1 1z"/>
   <path d="m34 7h1.188l3.5 16.618c0.13181 0.61375 0.45457 1.17 0.922 1.589-0.39368 0.51501-0.60793 1.1448-0.61 1.793 0 1.6569 1.3431 3 3 3s3-1.3431 3-3c-0.0034143-0.34143-0.065659-0.67972-0.184-1h2.368c-0.11834 0.32028-0.18059 0.65857-0.184 1 0 1.6569 1.3431 3 3 3s3-1.3431 3-3c-0.0034143-0.34143-0.065659-0.67972-0.184-1h0.184c0.55228 0 1-0.44772 1-1s-0.44772-1-1-1h-11.377c-0.47268-2.609e-4 -0.88063-0.33145-0.978-0.794l-0.465-2.206h11.22c0.95306-3.6e-6 1.7737-0.67252 1.961-1.607l1.6-8c0.11777-0.58764-0.034201-1.1971-0.41407-1.6607s-0.94761-0.73233-1.5469-0.73233h-15.346l-0.508-2.412c-0.19903-0.9233-1.0135-1.5839-1.958-1.588h-1.188c-0.55228 0-1 0.44772-1 1s0.44772 1 1 1zm9 20c0 0.55228-0.44772 1-1 1s-1-0.44772-1-1 0.44772-1 1-1 1 0.44772 1 1zm8 0c0 0.55228-0.44772 1-1 1s-1-0.44772-1-1 0.44772-1 1-1 1 0.44772 1 1zm-11.873-11h2.473l0.3 3h-2.141zm8.273 0-0.3 3h-3.19l-0.3-3zm-3.99-2-0.3-3h4.79l-0.3 3zm5.7 5 0.3-3h2.59l-0.6 3zm3.3-5h-2.8l0.3-3h3.09zm-11.31-3 0.3 3h-2.694l-0.631-3z"/>
   <path d="m50.5 32h-11c-1.933 0-3.5 1.567-3.5 3.5s1.567 3.5 3.5 3.5h11c1.933 0 3.5-1.567 3.5-3.5s-1.567-3.5-3.5-3.5zm0 5h-11c-0.82843 0-1.5-0.67157-1.5-1.5s0.67157-1.5 1.5-1.5h11c0.82843 0 1.5 0.67157 1.5 1.5s-0.67157 1.5-1.5 1.5z"/>
   <path d="m25 36h-12c-0.55228 0-1 0.44772-1 1s0.44772 1 1 1h12c0.55228 0 1-0.44772 1-1s-0.44772-1-1-1z"/>
  </g>
 </g>
</svg>
