<?xml version="1.0" encoding="UTF-8"?>
<svg width="512" height="512" enable-background="new 0 0 64 64" version="1.1" viewBox="0 0 64 64" xmlns="http://www.w3.org/2000/svg">
 <circle cx="32.174" cy="31.873" r="23.75" fill="#b4c850" stroke-linecap="round" stroke-width="1.7322"/>
 <g fill="#fff" stroke-linecap="round">
  <path d="m6.625 41.875h19v3.75h-1.25l3.375 8.375h4.625s-1.375 4.625-3.75 6.375-8 1.625-8 1.625h-10.375s-3.75-1-5.5-3-2.75-9-2.75-9h6.125v-4.125h-1.5z" stroke-width="1.875"/>
  <rect x="42.25" y="44.375" width="19.5" height="17.25" stroke-width="1.8707"/>
  <path d="m10.875 26.375-9-12.5s-1.5899-11.619 9-11.875c10.59-0.2558 8.875 12 8.875 12z" stroke-width="1.875"/>
 </g>
 <path d="m17 11c0-3.309-2.691-6-6-6s-6 2.691-6 6 2.691 6 6 6 6-2.691 6-6zm-10 0c0-2.206 1.794-4 4-4s4 1.794 4 4-1.794 4-4 4-4-1.794-4-4z"/>
 <path transform="matrix(.707 -.707 .707 .707 11.038 42.063)" d="m55.293 6.707h2v2h-2z"/>
 <path transform="matrix(.707 -.707 .707 .707 8.21 40.891)" d="m52.464 9.535h2v2h-2z"/>
 <path transform="matrix(.707 -.707 .707 .707 5.417 39.734)" d="m49.722 12.329h1.899v2h-1.899z"/>
 <path d="m43.125 2 9.875 2.75s4.2205-3.4556 6.625-1-0.25 6.625-0.25 6.625l2.25 10-7-5.375-4.75 3.75 1 5.25-2 2.125-2.75-5.625-2.625 0.25-0.375-3.375-5.375-2.25 2.125-2.375 5.5 1.5 3.625-5.375z" fill="#fff" stroke-linecap="round" stroke-width="1.875"/>
 <path d="m60 43h-5.547c1.669-3.407 2.547-7.175 2.547-11 0-5.08-1.516-9.919-4.361-14.076.755-.527 1.492-1.08 2.209-1.661l6.152 6.151 2.144-2.144-3-9.001.32-.32c.991-.989 1.536-2.305 1.536-3.707 0-2.89-2.352-5.242-5.243-5.242-1.399 0-2.716.545-3.707 1.534l-.322.322-8.999-3-2.143 2.144 6.152 6.152c-.582.716-1.134 1.454-1.661 2.208-4.158-2.844-8.997-4.36-14.077-4.36-3.865 0-7.674.897-11.109 2.601-.684-4.852-4.853-8.601-9.891-8.601-5.514 0-10 4.486-10 10v.275c0 1.98.581 3.898 1.68 5.547l5.367 8.05c-.686 2.305-1.047 4.699-1.047 7.128 0 3.116.565 6.136 1.673 9h-.673c-1.654 0-3 1.346-3 3 0 1.302.839 2.402 2 2.816v2.184h-6v3.349c0 5.873 4.778 10.651 10.651 10.651h11.069c4.109 0 7.823-2.398 9.581-6.008 3.009-.035 5.928-.593 8.7-1.665v4.673c0 1.654 1.346 3 3 3h16c1.654 0 3-1.346 3-3v-14c-.001-1.654-1.347-3-3.001-3zm-11 2h6v2h-6zm-5-2h-2.986c.579-3.024.922-6.404.976-10h12.977c-.152 3.507-1.103 6.932-2.777 10zm-11.031 11.798.031-1.798h-4.382l-3.189-6.379c.642-.351 1.138-.924 1.387-1.621h11.711c-1.352 5.386-3.457 8.946-5.558 9.798zm-6.153-11.798c-.338-.948-1.133-1.676-2.125-1.912-.404-2.571-.628-5.283-.671-8.088h15.97c-.057 3.697-.428 7.067-1.014 10zm-17.778-12c.063-1.472.251-2.929.59-4.352.415.227.884.352 1.372.352.961 0 1.853-.478 2.387-1.277l3.148-4.723h6.451c-.579 3.024-.922 6.404-.976 10zm15.992-10h13.953c.606 3.058.944 6.462.999 10h-15.963c.058-3.696.424-7.069 1.011-10zm6.97-12c1.777 0 3.605 2.012 5.072 5.514l-.76.76 1.304.652c.34.965.649 1.988.92 3.074h-13.057c1.563-6.211 4.127-10 6.521-10zm11.08 7.422-3.392-1.696.619-.618 3.514.878c-.258.472-.502.952-.741 1.436zm-.84 1.816c-.008.018-.017.036-.025.054-.098.227-.15.466-.181.708h-1.446c-.148-.627-.309-1.234-.479-1.827zm12.721 12.762h-12.979c-.053-3.518-.382-6.913-.968-10h1.584c.488.605 1.225 1 2.061 1 .36 0 .712-.072 1.048-.215.019-.008.036-.017.055-.025l2.964 5.928 3.381-3.382-1.294-5.177c.054-.033.106-.069.16-.103 2.439 3.557 3.804 7.657 3.988 11.974zm-5.947-10.821.878 3.514-.619.618-1.696-3.392c.485-.238.965-.482 1.437-.74zm11.698-.881-4.338-4.338c.503-.453.997-.917 1.477-1.398l.711-.711zm-3.955-15.298c1.788 0 3.243 1.454 3.243 3.242 0 .867-.337 1.681-.95 2.293l-2.613 2.613c-3.323 3.323-7.199 5.947-11.516 7.798-.423.178-.921-.152-.921-.605 0-.09.018-.178.053-.261 1.852-4.319 4.475-8.194 7.798-11.518l2.612-2.613v.001c.614-.613 1.429-.95 2.294-.95zm-12.054-.712 6.446 2.149-.711.712c-.481.481-.945.975-1.398 1.477zm.167 9.899-5.176-1.295-1.098 1.098c-.657-1.427-1.384-2.619-2.167-3.55 3.056.593 5.945 1.803 8.545 3.586-.035.055-.071.107-.104.161zm-23.911-1.356c2.089-1.145 4.341-1.96 6.676-2.41-1.764 2.09-3.227 5.425-4.22 9.579h-5.547l1.452-2.178c.995-1.493 1.54-3.21 1.639-4.991zm-17.959-.556v-.275c0-4.411 3.589-8 8-8s8 3.589 8 8v.275c0 1.585-.465 3.119-1.344 4.438l-5.934 8.9c-.323.484-1.122.484-1.445 0l-5.934-8.9c-.878-1.318-1.343-2.853-1.343-4.438zm6.026 21.725h12.994c.042 2.766.255 5.446.637 8h-11.821c-1.083-2.542-1.692-5.225-1.81-8zm-1.026 10h16c.551 0 1 .448 1 1s-.449 1-1 1h-16c-.551 0-1-.448-1-1s.449-1 1-1zm1 4h14.382l3 6h-13.764l-2-4h-1.618zm13.72 14h-11.069c-4.77 0-8.651-3.881-8.651-8.651v-1.349h6.382l2 4h19.573c-1.143 3.547-4.489 6-8.235 6zm13.644-6.42c1.764-2.09 3.228-5.426 4.221-9.58h.599c-.112.314-.184.648-.184 1v7.163c-1.5.64-3.048 1.113-4.636 1.417zm24.636 5.42c0 .552-.449 1-1 1h-16c-.551 0-1-.448-1-1v-14c0-.552.449-1 1-1h3v4h10v-4h3c.551 0 1 .448 1 1z"/>
 <path d="m57 57h2v2h-2z"/>
 <path d="m53 57h2v2h-2z"/>
 <path d="m17 49h2v2h-2z"/>
 <path d="m21 49h2v2h-2z"/>
 <path d="m13 49h2v2h-2z"/>
 <path d="m27 35h2v2h-2z"/>
 <path d="m35 35h2v2h-2z"/>
 <path d="m31 35h2v2h-2z"/>
 <path d="m35 27h2v2h-2z"/>
 <path d="m31 27h2v2h-2z"/>
 <path d="m27 27h2v2h-2z"/>
</svg>
