<?xml version="1.0" encoding="UTF-8"?>
<svg id="Icons" width="512" height="512" version="1.1" viewBox="0 0 60 60" xmlns="http://www.w3.org/2000/svg">
 <g fill="#fff" stroke-width=".1164">
  <circle cx="6.9141" cy="42.188" r="2.6953"/>
  <circle cx="17.93" cy="52.148" r="2.6953"/>
  <circle cx="29.883" cy="56.016" r="2.6953"/>
  <circle cx="41.953" cy="52.148" r="2.6953"/>
  <circle cx="53.086" cy="42.07" r="2.6953"/>
 </g>
 <circle cx="30.176" cy="21.152" r="19.746" fill="#b4c850" stroke-width=".1173"/>
 <path d="M53,38a4,4,0,0,0-3.858,3H48a1,1,0,0,1-1-1V33.3A20.99,20.99,0,0,0,15.15,6.151,20.956,20.956,0,0,0,13,33.3V40a1,1,0,0,1-1,1H10.858a4,4,0,1,0,0,2H12a3,3,0,0,0,3-3V35.683c.052.054.1.113.15.166A21.121,21.121,0,0,0,20,39.47v2.46a.99.99,0,0,1-.447.83l-1.214.816A2.977,2.977,0,0,0,17,46.07v2.072a4,4,0,1,0,2,0V46.07a.99.99,0,0,1,.447-.83l1.214-.816A2.977,2.977,0,0,0,22,41.93v-1.5a20.917,20.917,0,0,0,7,1.525V52.174a3.854,3.854,0,0,0-1.828,1,4,4,0,1,0,5.656,0,3.856,3.856,0,0,0-1.828-1V41.951a20.917,20.917,0,0,0,7-1.525v1.5a2.976,2.976,0,0,0,1.332,2.49l1.228.825a.985.985,0,0,1,.44.825v2.072a4,4,0,1,0,2,0V46.07a2.976,2.976,0,0,0-1.332-2.49l-1.228-.825A.985.985,0,0,1,40,41.93V39.47a21.121,21.121,0,0,0,4.85-3.621c.053-.053.1-.112.15-.166V40a3,3,0,0,0,3,3h1.142A3.993,3.993,0,1,0,53,38ZM7,44a2,2,0,1,1,2-2A2,2,0,0,1,7,44Zm13,8a2,2,0,1,1-2-2A2,2,0,0,1,20,52Zm24,0a2,2,0,1,1-2-2A2,2,0,0,1,44,52ZM41.972,20a34.005,34.005,0,0,0-1.486-9.339,16.732,16.732,0,0,0,3.592-2.388A18.817,18.817,0,0,1,48.951,20ZM29,10.959A22.3,22.3,0,0,1,22.076,9.6C23.726,5.508,26.21,2.654,29,2.1Zm0,2V20H20.028A31.781,31.781,0,0,1,21.4,11.484,24.364,24.364,0,0,0,29,12.958ZM29,22v7.042a24.364,24.364,0,0,0-7.6,1.474A31.781,31.781,0,0,1,20.028,22Zm0,9.041V39.9c-2.79-.554-5.274-3.408-6.924-7.5A22.3,22.3,0,0,1,29,31.041Zm2,0A22.3,22.3,0,0,1,37.924,32.4c-1.65,4.094-4.134,6.948-6.924,7.5Zm0-2V22h8.972A31.781,31.781,0,0,1,38.6,30.516,24.364,24.364,0,0,0,31,29.042ZM31,20V12.958a24.364,24.364,0,0,0,7.6-1.474A31.781,31.781,0,0,1,39.972,20Zm0-9.041V2.1c2.79.554,5.274,3.408,6.924,7.5A22.3,22.3,0,0,1,31,10.959Zm8.8-2.2A18.339,18.339,0,0,0,36.338,3.1,18.875,18.875,0,0,1,42.66,6.861,14.762,14.762,0,0,1,39.8,8.764Zm-19.6,0a14.762,14.762,0,0,1-2.86-1.9A18.875,18.875,0,0,1,23.662,3.1,18.339,18.339,0,0,0,20.2,8.764Zm-.686,1.9A34.005,34.005,0,0,0,18.028,20H11.049A18.817,18.817,0,0,1,15.922,8.273,16.732,16.732,0,0,0,19.514,10.661ZM18.028,22a34.005,34.005,0,0,0,1.486,9.339,16.732,16.732,0,0,0-3.592,2.388A18.817,18.817,0,0,1,11.049,22ZM20.2,33.236A18.339,18.339,0,0,0,23.662,38.9a18.875,18.875,0,0,1-6.322-3.759A14.762,14.762,0,0,1,20.2,33.236Zm19.6,0a14.762,14.762,0,0,1,2.86,1.9A18.875,18.875,0,0,1,36.338,38.9,18.339,18.339,0,0,0,39.8,33.236Zm.686-1.9A34.005,34.005,0,0,0,41.972,22h6.979a18.817,18.817,0,0,1-4.873,11.727A16.732,16.732,0,0,0,40.486,31.339ZM32,56a1.986,1.986,0,0,1-.586,1.414,2.047,2.047,0,0,1-2.828,0A2,2,0,1,1,32,56ZM53,44a2,2,0,1,1,2-2A2,2,0,0,1,53,44Z"/>
</svg>
