<?xml version="1.0" encoding="UTF-8"?>
<svg width="512" height="512" enable-background="new 0 0 609.686 609.686" version="1.1" viewBox="0 0 609.69 609.69" xmlns="http://www.w3.org/2000/svg">
 <path d="m303.65 5.954-113.13 59.54-125.03 17.862v273.88l29.77 47.632s53.586 101.22 130.99 154.8c77.402 53.586 77.402 41.678 77.402 41.678s148.85-89.309 178.62-136.94c29.77-47.632 65.494-125.03 65.494-125.03l-5.954-65.494 5.954-190.53-148.85-23.816z" fill="#fff" stroke-linecap="round" stroke-width="17.862"/>
 <g fill="#b4c850" stroke-linecap="round" stroke-width="17.862">
  <path d="m101.22 119.08 142.9-29.77 59.54-35.724 101.22 53.586 101.22 11.908-5.954 136.94-107.17-5.954-29.77-107.17-23.816 113.13h-226.25z"/>
  <path d="m136.94 398.92h89.309s0 83.356 77.402 83.356c77.402 0 83.356-83.356 83.356-83.356h89.309s-23.816 53.586-71.448 89.309-101.22 65.494-101.22 65.494-71.448-35.724-107.17-71.448-59.54-83.356-59.54-83.356z"/>
  <path d="m256.02 392.96h101.22l-53.586 47.632z"/>
 </g>
 <g id="Page-1_19_">
  <g id="_x30_20---Phishing-Protection" transform="translate(0 -1)">
   <path id="Path_77_" d="m145.696 204.512h.396c2.694-.103 5.236-1.272 7.067-3.25s2.802-4.603 2.697-7.296c-.366-9.643-.691-19.509-1.016-29.466 9.927-1.514 19.742-3.282 29.273-5.273 3.554-.741 6.443-3.321 7.578-6.769 1.136-3.448.345-7.24-2.073-9.947s-6.097-3.919-9.651-3.179c-11.969 2.5-24.386 4.633-36.924 6.34-5.149.699-8.94 5.17-8.789 10.364.396 13.209.823 26.154 1.301 38.753.234 5.431 4.704 9.717 10.141 9.723z" clip-rule="evenodd" fill-rule="evenodd"/>
   <path id="Shape_37_" d="m77.833 386.5c27.383 91.741 86.62 152.13 217.36 221.78 6.035 3.21 13.271 3.21 19.305 0 130.7-69.631 189.94-130.01 217.34-221.7 1.077-1.016 2.185-1.9 3.221-2.926 25.1-25.052 31.01-63.509 14.591-94.942 5.009-50.804 6.564-108.96 8.494-182.27l0.406-15.617c0.208-5.468-1.797-10.789-5.562-14.759s-8.973-6.254-14.444-6.335c-130.6-2.397-202.49-50.011-221.5-64.622-7.24-5.499-17.264-5.474-24.477 0.061-18.919 14.55-90.817 62.163-221.41 64.561-5.455 0.079-10.649 2.348-14.413 6.296-3.765 3.948-5.784 9.244-5.603 14.696l0.417 15.719c1.931 73.239 3.485 131.36 8.484 182.14-17.163 32.87-9.832 73.194 17.802 97.919zm226.9 203.86c-114.24-60.883-171.25-113.8-199.87-187.71 7.557 2.701 15.475 4.256 23.492 4.613 26.774 60.558 74.102 103.81 171.6 157.35 3.042 1.68 6.733 1.68 9.775 0 97.543-53.527 144.82-96.791 171.6-157.34 8.006-0.36 15.915-1.901 23.471-4.572-28.624 73.909-85.666 126.78-200.08 187.66zm-90.725-182.89c2.456 21.676 12.54 41.772 28.45 56.697 16.817 15.847 39.067 24.647 62.174 24.589 2.134 0 4.288-0.081 6.452-0.224 43.662-3.821 78.745-37.579 84.243-81.062h63.505c-25.097 50.804-68.839 89.353-153.99 136.64-85.147-47.288-128.89-85.838-153.99-136.64zm50.194-60.964c-5.612 0-10.161 4.549-10.161 10.161v38.916c-0.013 0.872 0.031 1.745 0.132 2.611 0.331 19.916 12.287 37.795 30.567 45.707s39.498 4.393 54.245-8.996c7.991-7.255 13.471-16.862 15.648-27.434h20.149c-5.199 32.762-31.991 57.804-65.029 60.781-19.656 1.443-39.015-5.428-53.364-18.94-14.41-13.463-22.614-32.283-22.669-52.003v-81.286c2e-3 -0.554 0.063-1.106 0.183-1.646 0.353-2.076 1.893-3.751 3.932-4.278 2.721-0.908 5.72-0.244 7.803 1.727l34.719 34.679h-16.155zm12.386 60.964h56.829c-1.645 4.745-4.438 9.01-8.129 12.416-7.471 6.843-17.889 9.458-27.706 6.955-9.818-2.503-17.711-9.786-20.994-19.371zm244.1-38.174c-11.411 11.468-26.934 17.896-43.112 17.852h-203.22v-20.321h5.995c8.228-2e-3 15.644-4.965 18.782-12.572s1.379-16.355-4.455-22.157l-34.648-34.648c-7.456-7.429-18.463-10.019-28.45-6.696-9.203 2.757-16.047 10.495-17.659 19.966-0.356 1.745-0.533 3.523-0.528 5.304v71.125h-81.286c-33.67 0-60.964-27.295-60.964-60.964s27.295-60.964 60.964-60.964h345.46c24.66-3e-3 46.893 14.851 56.331 37.633 9.436 22.782 4.219 49.006-13.22 66.442zm-407.53-240.81c67.507-4.393 133.1-24.273 191.68-58.099 58.586 33.826 124.18 53.706 191.68 58.099-1.118 41.822-2.367 82.139-4.532 117.75-4.757-0.875-9.582-1.324-14.418-1.341h-81.285v-40.643c0.128-12.913-8.078-24.437-20.321-28.541v-32.423c0-5.612-4.549-10.161-10.161-10.161s-10.161 4.549-10.161 10.161v32.24c-12.342 4.778-20.436 16.699-20.321 29.934v39.432h-203.22c-4.835 0.018-9.66 0.46-14.418 1.321-2.164-35.613-3.414-75.921-4.532-117.73zm242.49 116.41v-39.424c-0.26-5.261 3.268-9.959 8.393-11.177 2.95-0.521 5.98 0.286 8.279 2.205 2.3 1.92 3.635 4.756 3.649 7.752v40.644zm-50.905-223.61c20.179 15.495 96.618 66.248 233.49 68.89l-0.406 15.719c-1.656 62.763-3.048 114.31-6.544 159.42-5.8-5.131-12.3-9.411-19.305-12.711 2.55-39.891 3.902-85.757 5.152-133.24 0.138-5.439-4.032-10.021-9.46-10.394-96.415-6.716-160.54-35.857-197.37-59.115-3.314-2.093-7.537-2.093-10.852 0-36.822 23.258-100.96 52.399-197.37 59.115-5.427 0.374-9.598 4.956-9.46 10.394 1.25 47.694 2.611 93.763 5.172 133.19-7.01 3.296-13.512 7.58-19.305 12.721-3.587-45.104-4.969-96.588-6.625-159.38l-0.325-15.851c136.78-2.51 213.23-53.263 233.21-68.758z"/>
   <g clip-rule="evenodd" fill-rule="evenodd">
    <path id="Path_76_" d="m178.851 310.945c.003-3.674-1.977-7.063-5.179-8.864s-7.127-1.734-10.265.177l-10.974 6.31v-12.863c0-5.612-4.549-10.161-10.161-10.161s-10.161 4.549-10.161 10.161v12.874l-11.177-6.432c-4.836-2.603-10.866-.891-13.613 3.865s-1.218 10.834 3.452 13.724l11.177 6.452-11.177 6.432c-3.145 1.815-5.084 5.17-5.085 8.802s1.936 6.988 5.08 8.804c3.145 1.817 7.019 1.817 10.165.002l11.177-6.442v12.884c0 5.612 4.549 10.161 10.161 10.161s10.161-4.549 10.161-10.161v-12.894l11.177 6.432c4.848 2.788 11.037 1.135 13.849-3.698 2.809-4.854 1.154-11.067-3.699-13.88l-11.167-6.442 2.896-1.677c11.818-6.829 13.363-7.703 13.363-13.566z"/>
    <path id="Path_75_" d="m503.994 310.945c.003-3.674-1.977-7.063-5.179-8.864s-7.127-1.734-10.265.177l-10.974 6.31v-12.863c0-5.612-4.549-10.161-10.161-10.161s-10.161 4.549-10.161 10.161v12.874l-11.177-6.432c-4.836-2.603-10.866-.891-13.613 3.865s-1.218 10.834 3.452 13.724l11.177 6.452-11.177 6.432c-3.146 1.815-5.084 5.17-5.085 8.802s1.936 6.988 5.08 8.804c3.145 1.817 7.019 1.817 10.165.002l11.177-6.442v12.884c0 5.612 4.549 10.161 10.161 10.161s10.161-4.549 10.161-10.161v-12.894l11.177 6.432c4.848 2.788 11.037 1.135 13.849-3.698 2.809-4.854 1.154-11.067-3.699-13.88l-11.167-6.442 2.896-1.677c11.818-6.829 13.363-7.703 13.363-13.566z"/>
    <path id="Path_74_" d="m402.387 310.945c.003-3.674-1.977-7.063-5.179-8.864s-7.127-1.734-10.265.177l-10.974 6.31v-12.863c0-5.612-4.549-10.161-10.161-10.161s-10.161 4.549-10.161 10.161v12.874l-11.177-6.432c-4.836-2.603-10.866-.891-13.613 3.865s-1.218 10.834 3.452 13.724l11.177 6.452-11.177 6.432c-3.145 1.815-5.084 5.17-5.085 8.802s1.936 6.988 5.08 8.804c3.145 1.817 7.019 1.817 10.165.002l11.177-6.442v12.884c0 5.612 4.549 10.161 10.161 10.161s10.161-4.549 10.161-10.161v-12.894l11.177 6.432c4.848 2.788 11.037 1.135 13.849-3.698 2.809-4.854 1.154-11.067-3.699-13.88l-11.167-6.442 2.896-1.677c11.818-6.829 13.363-7.703 13.363-13.566z"/>
   </g>
  </g>
 </g>
</svg>
