<?xml version="1.0" encoding="UTF-8"?>
<svg width="512" height="512" enable-background="new 0 0 64 64" version="1.1" viewBox="0 0 64 64" xml:space="preserve" xmlns="http://www.w3.org/2000/svg"><g fill="#fff"><rect x="36.375" y="2" width="25.125" height="23.625" stroke-width=".12239"/><rect x="2.5" y="2" width="25.25" height="23.75" stroke-width=".12302"/><rect x="50.25" y="41.125" width="11.375" height="15.5" stroke-width=".1245"/><rect x="2.125" y="41.375" width="11.375" height="15.5" stroke-width=".1245"/></g><g stroke-width=".125"><path d="m20 39.375v19.375s4.6052 3.3264 11.25 3.125 12.5-3.125 12.5-3.125v-20s-5.0289-3.1753-11.875-3.125-11.875 3.75-11.875 3.75z" fill="#b4c850"/><path d="m43.125 13.75v-5.625h3.75v-2.5h4.375v4.375h3.75v3.75z" fill="#b7b7b7"/><rect x="2.25" y="2.375" width="25.25" height="7.25" fill="#b7b7b7"/></g><path d="m53 44h6v2h-6z"/><path d="m53 48h6v2h-6z"/><path d="m53 52h6v2h-6z"/><path d="m5 44h6v2h-6z"/><path d="m5 48h6v2h-6z"/><path d="m5 52h6v2h-6z"/><path d="m56 9h-4v-4h-6v2h-4v6h-2v2h18v-2h-2zm-2 2v2h-2v-2zm-4-4v6h-2v-6zm-6 2h2v4h-2z"/><path d="m40 17h4v2h-4z"/><path d="m46 17h12v2h-12z"/><path d="m40 21h18v2h-18z"/><path d="m13 5h2v2h-2z"/><path d="m5 5h2v2h-2z"/><path d="m9 5h2v2h-2z"/><path d="m11 13h-6v6h6zm-2 4h-2v-2h2z"/><path d="m13 13h12v2h-12z"/><path d="m13 17h12v2h-12z"/><path d="m5 21h2v2h-2z"/><path d="m9 21h16v2h-16z"/><path d="m50 33v-6h10c1.654 0 3-1.346 3-3v-20c0-1.654-1.346-3-3-3h-22c-1.654 0-3 1.346-3 3v20c0 1.654 1.346 3 3 3h10v4h-11v4.321c-1.506-.207-3.18-.321-5-.321s-3.494.114-5 .321v-4.321h-11v-4h10c1.654 0 3-1.346 3-3v-20c0-1.654-1.346-3-3-3h-22c-1.654 0-3 1.346-3 3v20c0 1.654 1.346 3 3 3h10v6h11v2.676c-3.742.827-6 2.362-6 4.324v8h-4v-5c0-1.654-1.346-3-3-3h-8c-1.654 0-3 1.346-3 3v12c0 1.654 1.346 3 3 3h8c1.654 0 3-1.346 3-3v-5h4v8c0 2.991 5.224 5 13 5s13-2.009 13-5v-8h4v5c0 1.654 1.346 3 3 3h8c1.654 0 3-1.346 3-3v-12c0-1.654-1.346-3-3-3h-8c-1.654 0-3 1.346-3 3v5h-4v-8c0-1.962-2.258-3.497-6-4.324v-2.676zm-13-9v-20c0-.551.449-1 1-1h22c.551 0 1 .449 1 1v20c0 .551-.449 1-1 1h-22c-.551 0-1-.449-1-1zm-33-21h22c.551 0 1 .449 1 1v5h-24v-5c0-.551.449-1 1-1zm-1 21v-13h24v13c0 .551-.449 1-1 1h-22c-.551 0-1-.449-1-1zm10 31c0 .551-.449 1-1 1h-8c-.551 0-1-.449-1-1v-12c0-.551.449-1 1-1h8c.551 0 1 .449 1 1zm38-12c0-.551.449-1 1-1h8c.551 0 1 .449 1 1v12c0 .551-.449 1-1 1h-8c-.551 0-1-.449-1-1zm-19 18c-7.678 0-11-1.987-11-3v-3.146c2.202 1.344 6.09 2.146 11 2.146s8.798-.802 11-2.146v3.146c0 1.013-3.322 3-11 3zm0-6c-7.678 0-11-1.987-11-3v-3.146c2.202 1.344 6.09 2.146 11 2.146s8.798-.802 11-2.146v3.146c0 1.013-3.322 3-11 3zm0-6c-7.678 0-11-1.987-11-3v-3.146c2.202 1.344 6.09 2.146 11 2.146s8.798-.802 11-2.146v3.146c0 1.013-3.322 3-11 3zm11-9c0 1.013-3.322 3-11 3s-11-1.987-11-3c0-.622 1.258-1.609 4-2.28v2.28h2v-2.667c1.4-.206 3.06-.333 5-.333s3.6.127 5 .333v2.667h2v-2.28c2.742.671 4 1.658 4 2.28z"/></svg>
