<?xml version="1.0" encoding="UTF-8" standalone="no"?>
<svg
   height="512"
   viewBox="0 0 60 60"
   width="512"
   version="1.1"
   id="svg5659"
   xmlns="http://www.w3.org/2000/svg"
   xmlns:svg="http://www.w3.org/2000/svg">
  <defs
     id="defs5663" />
  <rect
     style="fill:#ffffff;fill-opacity:1;stroke-width:0.117188"
     id="rect5689"
     width="57.330368"
     height="47.119019"
     x="1.3348166"
     y="1.2680755" />
  <path
     id="rect5665"
     style="fill:#b7b7b7;stroke-width:0.117188"
     d="M 1.5023804 42.982635 L 1.5023804 48.789139 L 21.997833 48.789139 L 19.040451 54.99527 L 13.782806 54.99527 L 13.782806 59.199829 L 46.151962 59.199829 L 46.151962 54.99527 L 41.28479 54.99527 L 38.301086 48.789139 L 58.232117 48.789139 L 58.232117 42.982635 L 1.5023804 42.982635 z " />
  <rect
     style="fill:#b8c661;fill-opacity:1;stroke-width:0.117188"
     id="rect5691"
     width="14.682981"
     height="4.2714124"
     x="36.541382"
     y="33.471306" />
  <path
     style="fill:#b8c661;fill-opacity:1;stroke-width:0.117188"
     d="m 5.0723025,13.281424 7.1412685,-7.2747499 5.70634,4.5050059 6.106785,-4.5717469 6.874305,7.0745279 -2.936596,3.937708 -4.004449,-4.204672 -0.200223,12.14683 -11.412681,-0.400445 -0.333704,-12.080089 -4.3381534,4.87208 z"
     id="path6441" />
  <g
     id="Page-1"
     fill="none"
     fill-rule="evenodd">
    <g
       id="040---Online-Shopping"
       fill="rgb(0,0,0)"
       fill-rule="nonzero"
       transform="translate(-1)">
      <path
         id="Shape"
         d="m58 0h-54c-1.70564252.05441348-3.04655817 1.47712499-3 3.183v43.637c-.04487651 1.7047185 1.2955594 3.1255806 3 3.18h17.382l-2 4h-3.382c-1.6568542 0-3 1.3431458-3 3s1.3431458 3 3 3h30c1.6568542 0 3-1.3431458 3-3s-1.3431458-3-3-3h-3.382l-2-4h17.382c1.7048411-.0544176 3.0454368-1.4758959 3-3.181v-43.636c.0465582-1.70587501-1.2943575-3.12858652-3-3.183zm-11 57c0 .5522847-.4477153 1-1 1h-30c-.5522847 0-1-.4477153-1-1s.4477153-1 1-1h30c.5522847 0 1 .4477153 1 1zm-6.618-3h-18.764l2-4h14.764zm17.618-6h-54c-.59579567-.0615979-1.0369584-.5821699-1-1.18v-2.82h4c.55228475 0 1-.4477153 1-1s-.44771525-1-1-1h-4v-38.817c-.03863585-.59895678.40297024-1.12137679 1-1.183h54c.5966179.06161524 1.038076.58341866 1 1.182v38.818h-48c-.5522847 0-1 .4477153-1 1s.4477153 1 1 1h48v2.82c.0369584.5978301-.4042043 1.1184021-1 1.18z" />
      <path
         id="path5643"
         d="m10.222 17.4 1.778-1.886v7.486c0 1.6568542 1.3431458 3 3 3h8c1.6568542 0 3-1.3431458 3-3v-7.486l1.8 1.9c.4100717.4098056.9777889.6215086 1.5560604.5802583s1.11019-.3313944 1.4579396-.7952583l1.786-2.381c.5881445-.7918628.514415-1.8935685-.174-2.6l-6.133-6.338c-.5609307-.5650797-1.3247876-.88200288-2.121-.88h-10.344c-.8017431-.00119253-1.5703312.31986324-2.133.891l-6.11 6.309c-.70068718.7068-.77932901 1.8196882-.185 2.618l1.788 2.382c.34991547.4685688.88738449.7605122 1.47092361.7989788.58353912.0384667 1.15468036-.1803975 1.56307639-.5989788zm11.622-10.4c-.3290085 1.27407251-1.5337331 2.12127694-2.844 2-1.3101524.12084719-2.5146259-.72618058-2.844-2zm-14.832 6.606 6.109-6.312c.1878842-.18708603.4418586-.29269914.707-.294h.272c.3513796 2.40086781 2.4773914 4.1363876 4.9 4 2.4226086.1363876 4.5486204-1.59913219 4.9-4h.276c.2612087-.00103148.5124527.10018395.7.282l6.124 6.335-1.769 2.4-3.231-3.417v-.6c0-.5522847-.4477153-1-1-1s-1 .4477153-1 1v11c0 .5522847-.4477153 1-1 1h-8c-.5522847 0-1-.4477153-1-1v-11c0-.5522847-.4477153-1-1-1s-1 .4477153-1 1v.6l-3.212 3.4z" />
      <path
         id="path5645"
         d="m14 31c0-1.6568542-1.3431458-3-3-3-1.65685425 0-3 1.3431458-3 3s1.34314575 3 3 3c1.6568542 0 3-1.3431458 3-3zm-4 0c0-.5522847.4477153-1 1-1s1 .4477153 1 1-.4477153 1-1 1-1-.4477153-1-1z" />
      <path
         id="path5647"
         d="m22 31c0-1.6568542-1.3431458-3-3-3s-3 1.3431458-3 3 1.3431458 3 3 3 3-1.3431458 3-3zm-4 0c0-.5522847.4477153-1 1-1s1 .4477153 1 1-.4477153 1-1 1-1-.4477153-1-1z" />
      <path
         id="path5649"
         d="m27 28c-1.6568542 0-3 1.3431458-3 3s1.3431458 3 3 3 3-1.3431458 3-3-1.3431458-3-3-3zm0 4c-.5522847 0-1-.4477153-1-1s.4477153-1 1-1 1 .4477153 1 1-.4477153 1-1 1z" />
      <path
         id="path5651"
         d="m34 7h1.188l3.5 16.618c.131808.6137463.4545663 1.1699968.922 1.589-.393684.5150134-.6079296 1.144755-.61 1.793 0 1.6568542 1.3431458 3 3 3s3-1.3431458 3-3c-.0034143-.3414301-.065659-.6797164-.184-1h2.368c-.118341.3202836-.1805857.6585699-.184 1 0 1.6568542 1.3431458 3 3 3s3-1.3431458 3-3c-.0034143-.3414301-.065659-.6797164-.184-1h.184c.5522847 0 1-.4477153 1-1s-.4477153-1-1-1h-11.377c-.4726841-.0002609-.8806271-.331454-.978-.794l-.465-2.206h11.22c.9530648-.0000036 1.7737228-.6725163 1.961-1.607l1.6-8c.1177668-.5876375-.0342009-1.197116-.4140728-1.66067208s-.9476052-.73232563-1.5469272-.73232792h-15.346l-.508-2.412c-.1990316-.92329565-1.0135047-1.58385916-1.958-1.588h-1.188c-.5522847 0-1 .44771525-1 1s.4477153 1 1 1zm9 20c0 .5522847-.4477153 1-1 1s-1-.4477153-1-1 .4477153-1 1-1 1 .4477153 1 1zm8 0c0 .5522847-.4477153 1-1 1s-1-.4477153-1-1 .4477153-1 1-1 1 .4477153 1 1zm-11.873-11h2.473l.3 3h-2.141zm8.273 0-.3 3h-3.19l-.3-3zm-3.99-2-.3-3h4.79l-.3 3zm5.7 5 .3-3h2.59l-.6 3zm3.3-5h-2.8l.3-3h3.09zm-11.31-3 .3 3h-2.694l-.631-3z" />
      <path
         id="path5653"
         d="m50.5 32h-11c-1.9329966 0-3.5 1.5670034-3.5 3.5s1.5670034 3.5 3.5 3.5h11c1.9329966 0 3.5-1.5670034 3.5-3.5s-1.5670034-3.5-3.5-3.5zm0 5h-11c-.8284271 0-1.5-.6715729-1.5-1.5s.6715729-1.5 1.5-1.5h11c.8284271 0 1.5.6715729 1.5 1.5s-.6715729 1.5-1.5 1.5z" />
      <path
         id="path5655"
         d="m25 36h-12c-.5522847 0-1 .4477153-1 1s.4477153 1 1 1h12c.5522847 0 1-.4477153 1-1s-.4477153-1-1-1z" />
    </g>
  </g>
</svg>
