<?xml version="1.0" encoding="UTF-8"?>
<svg width="512" height="512" enable-background="new 0 0 64 64" version="1.1" viewBox="0 0 64 64" xmlns="http://www.w3.org/2000/svg">
 <path d="m20 3.125s-8.75-0.625-11.25 5 0 11.875 0 11.875-13.125 10.625-3.75 23.75 23.125 4.375 23.125 4.375l13.125 14.375 4.375-2.5 1.25-4.375-13.125-13.125s3.125-7.5 1.875-13.125-8.75-10-8.75-10l-1.875-9.375s4.375-2.5 3.125-5.625c-1.9141-4.7853-8.125-1.25-8.125-1.25z" fill="#fff" stroke-linecap="round" stroke-width="1.875"/>
 <g fill="#b4c850" stroke-linecap="round" stroke-width="1.875">
  <path d="m23.75 21.875s10.625 3.75 8.125 13.75-5.625 9.375-5.625 9.375l-0.625-13.75-5-4.375v-2.5z"/>
  <path d="m9.375 42.5s-5.625-5.625-3.125-12.5 6.25-6.875 6.25-6.875l2.5 1.875-4.375 3.75z"/>
  <rect x="48.125" y="23.75" width="11.875" height="12.5"/>
  <rect x="48.125" y="40" width="11.875" height="11.875"/>
  <rect x="38.125" y="1.875" width="5.625" height="6.25"/>
  <rect x="56.25" y="2.5" width="5.625" height="5.625"/>
 </g>
 <g stroke-linecap="round" stroke-width="1.875">
  <rect x="32.5" y="2.5" width="5.625" height="5" fill="#fff"/>
  <rect x="50" y="2.5" width="5.625" height="5" fill="#fff"/>
  <rect x="44.25" y="2.5" width="5.625" height="5" fill="#b7b7b7"/>
 </g>
 <circle cx="22" cy="14" r="1"/>
 <path d="m37 34c0-6.462-3.446-12.378-9.021-15.592-.144-3.326-1.448-6.146-2.345-7.705 1.953-.681 3.366-2.521 3.366-4.703 0-2.757-2.243-5-5-5-1.116 0-2.136.38-2.969 1h-3.364c-6.434 0-11.667 5.233-11.667 11.667 0 2.224.654 4.383 1.82 6.23-4.286 3.403-6.82 8.603-6.82 14.103 0 9.925 8.075 18 18 18 3.058 0 5.938-.771 8.463-2.123l13.123 13.123h.414c3.859 0 7-3.14 7-7v-.414l-13.123-13.123c1.352-2.525 2.123-5.405 2.123-8.463zm-22-1.382v12.682c-1.492-.53-2.846-1.344-4.001-2.382l.001-10.533c0-2.643 1.477-4.993 3.796-6.175l4.204 4.204 2.204-2.204c2.319 1.182 3.796 3.532 3.796 6.175v9.991c-1.767 1.026-3.813 1.624-6 1.624-.683 0-1.348-.071-2-.181v-14.437l-2.553-1.276-.895 1.789zm-2.807-8.473.943.707c-2.55 1.622-4.136 4.423-4.136 7.533l-.001 8.232c-1.26-1.898-1.999-4.172-1.999-6.617 0-3.984 1.94-7.61 5.193-9.855zm9.807 2.206v-1.601c.633-.214 1.22-.556 1.707-1.042.169-.169.313-.354.451-.544 4.182 1.982 6.842 6.146 6.842 10.836 0 3.542-1.552 6.72-4 8.919v-8.534c0-3.451-1.941-6.535-5-8.034zm1-7.072v1.307c0 .645-.251 1.251-.707 1.707s-1.063.707-1.707.707h-2.586v2h2v1.586l-1 1-3-3v-4.757c0-.801-.313-1.555-.879-2.122l-.828-.828c-.189-.189-.293-.441-.293-.708v-.171c0-.551.448-1 1-1h1v-3c0-.551.448-1 1-1h5 1.473c.659 1.016 2.298 3.86 2.506 7.287zm-5.333-15.279h1.757c-.27.614-.424 1.288-.424 2h2c0-1.654 1.346-3 3-3s3 1.346 3 3-1.346 3-3 3h-2-5c-1.654 0-3 1.346-3 3v1.171c-1.164.413-2 1.525-2 2.829v.171c0 .801.313 1.555.879 2.122l.828.828c.189.189.293.441.293.708v3.172l-2.134-1.6c-2.421-1.817-3.866-4.708-3.866-7.734 0-5.331 4.337-9.667 9.667-9.667zm-14.667 30c0-4.877 2.241-9.489 6.035-12.516.451.5.941.968 1.48 1.386-3.475 2.641-5.515 6.702-5.515 11.13 0 7.72 6.28 14 14 14s14-6.28 14-14c0-5.505-3.143-10.387-8.076-12.683.033-.197.068-.393.074-.596l1.896-.632c5.008 2.847 8.106 8.134 8.106 13.911 0 8.822-7.178 16-16 16s-16-7.178-16-16zm42.984 22.398c-.193 2.44-2.146 4.393-4.586 4.586l-12.182-12.182c1.791-1.24 3.346-2.795 4.586-4.586z"/>
 <path d="m47 53h14v-14h-14zm2-12h10v10h-10z"/>
 <path d="m53 46.586-1.293-1.293-1.414 1.414 2.707 2.707 5.707-5.707-1.414-1.414z"/>
 <path d="m47 37h14v-14h-14zm2-12h10v10h-10z"/>
 <path d="m53 30.586-1.293-1.293-1.414 1.414 2.707 2.707 5.707-5.707-1.414-1.414z"/>
 <path d="m31 1v8h32v-8zm14 2h4v4h-4zm-2 4h-4v-4h4zm8-4h4v4h-4zm-18 0h4v4h-4zm28 4h-4v-4h4z"/>
 <path d="m37 11h18v2h-18z"/>
 <path d="m37 15h18v2h-18z"/>
 <path d="m53 19h2v2h-2z"/>
 <path d="m37 19h2v2h-2z"/>
 <path d="m45 19h2v2h-2z"/>
 <path d="m49 19h2v2h-2z"/>
 <path d="m41 19h2v2h-2z"/>
</svg>
