<?xml version="1.0" encoding="UTF-8" standalone="no"?>
<svg
   id="svg60"
   clip-rule="evenodd"
   fill-rule="evenodd"
   height="512"
   stroke-linejoin="round"
   stroke-miterlimit="2"
   viewBox="0 0 64 64"
   width="512"
   version="1.1"
   xmlns="http://www.w3.org/2000/svg"
   xmlns:svg="http://www.w3.org/2000/svg">
  <defs
     id="defs17524" />
  <rect
     style="opacity:1;fill:#b8c661;stroke-width:1.875;stroke-linecap:round;fill-opacity:1"
     id="rect17526"
     width="43.218376"
     height="47.526779"
     x="4.1438847"
     y="6.190248"
     ry="1.875" />
  <path
     id="path4"
     d="M 48.370023,28.003022 V 8.0027984 c 0,-1.6569255 -1.343466,-3.0008975 -3.000797,-3.0008975 H 5.9953711 c -1.6573315,0 -3.0007966,1.343972 -3.0007966,3.0008975 V 52.002522 c 0,1.656925 1.3434651,3.000897 3.0007966,3.000897 H 45.369226 c 0.548533,0 1.058932,-0.145917 1.501865,-0.403191 0.478133,-0.274555 0.639466,-0.887022 0.363734,-1.365092 -0.275733,-0.47807 -0.888799,-0.641267 -1.366932,-0.364792 -0.146667,0.08448 -0.3168,0.132477 -0.498666,0.132477 H 5.9953711 c -0.5514661,0 -1.0002656,-0.447351 -1.0002656,-1.000299 V 8.0027984 c 0,-0.5529485 0.4487995,-1.0002992 1.0002656,-1.0002992 H 45.369227 c 0.551465,0 1.000265,0.4473507 1.000265,1.0002992 V 28.003022 c 0,0.551028 0.448799,1.000299 1.000266,1.000299 0.551466,0 1.000265,-0.449271 1.000265,-1.000299 z"
     stroke-width="2.373" />
  <path
     style="opacity:1;fill:#ffffff;fill-opacity:1;stroke-width:1.875;stroke-linecap:round"
     d="m 37.039169,10.385292 -4.885692,4.885692 4.629897,4.629895 z"
     id="path17814" />
  <path
     id="path8"
     d="m38 16.00064v4c0 .404-.244.769-.617.924-.374.155-.804.069-1.09-.217l-5-5c-.391-.39-.391-1.024 0-1.414l5-5c.286-.286.716-.372 1.09-.217.373.155.617.52.617.924v4h2c.796 0 1.559.316 2.121.879.563.562.879 1.325.879 2.121v9c0 .552-.448 1-1 1s-1-.448-1-1c0 0 0-5.828 0-9 0-.265-.105-.52-.293-.707-.187-.188-.442-.293-.707-.293zm-4.586-1 2.586 2.586v-5.172z" />
  <g
     id="g17853"
     transform="translate(2.5,0.624985)">
    <circle
       style="opacity:1;fill:#ffffff;stroke-width:1.875;stroke-linecap:round;fill-opacity:1"
       id="path17528"
       cx="40.952839"
       cy="38.997204"
       r="9.1318941" />
    <rect
       style="opacity:1;fill:#ffffff;fill-opacity:1;stroke-width:1.875;stroke-linecap:round"
       id="rect17530"
       width="3.9904077"
       height="11.05036"
       x="-0.52814066"
       y="70.395271"
       transform="rotate(-45)" />
    <path
       id="path10"
       d="m 47.327,46.74264 c -1.724,1.411 -3.927,2.258 -6.327,2.258 -5.519,0 -10,-4.481 -10,-10 0,-5.519 4.481,-10 10,-10 5.519,0 10,4.481 10,10 0,2.4 -0.847,4.603 -2.258,6.327 l 2.258,2.259 0.793,-0.793 c 0.39,-0.391 1.024,-0.391 1.414,0 l 7.5,7.5 c 0.391,0.39 0.391,1.024 0,1.414 l -3,3 c -0.39,0.391 -1.024,0.391 -1.414,0 l -7.5,-7.5 c -0.391,-0.39 -0.391,-1.024 0,-1.414 l 0.793,-0.793 z m 3.587,3.758 6.086,6.086 1.586,-1.586 -6.086,-6.086 z M 41,31.00064 c 4.415,0 8,3.585 8,8 0,4.415 -3.585,8 -8,8 -4.415,0 -8,-3.585 -8,-8 0,-4.415 3.585,-8 8,-8 z" />
  </g>
  <rect
     style="opacity:1;fill:#ffffff;stroke-width:1.875;stroke-linecap:round;fill-opacity:1"
     id="rect17532"
     width="19.338129"
     height="7.1622701"
     x="8.429657"
     y="10.481814" />
  <path
     id="path12"
     d="m28.997787 11.999784c0-.7956-.315999-1.558556-.878664-2.1211722s-1.32533-.8788078-2.121328-.8788078c-3.83199 0-12.16797 0-15.99996 0-.795998 0-1.5586628.3161916-2.121328.8788078-.5626653.5626162-.8786645 1.3255722-.8786645 2.1211722v4.00136c0 .7956.3159992 1.558556.8786645 2.121172.5626652.562616 1.32533.878808 2.121328.878808h15.99996c.795998 0 1.558663-.316192 2.121328-.878808s.878664-1.325572.878664-2.121172zm-1.999995 0v4.00136c0 .264987-.105333.519412-.293332.706951-.186666.187538-.441332.292829-.706665.292829-3.83199 0-12.16797 0-15.99996 0-.2653327 0-.5199987-.105291-.7066649-.292829-.1879995-.187539-.2933326-.441964-.2933326-.706951 0-1.222202 0-2.779478 0-4.00136 0-.265307.1053331-.519412.2933326-.706951.1866662-.187539.4413322-.292829.7066649-.292829h15.99996c.265333 0 .519999.10529.706665.292829.187999.187539.293332.441644.293332.706951z"
     stroke-width=".653" />
  <g
     stroke-width=".2"
     transform="scale(-1 1)"
     id="g17514">
    <path
       id="circle16"
       d="m-12 14.00064a1 1 0 0 1 -1 1 1 1 0 0 1 -1-1 1 1 0 0 1 1-1 1 1 0 0 1 1 1z" />
    <path
       id="circle20"
       d="m-10 24.000641a1 1 0 0 1 -1 1 1 1 0 0 1 -1-1 1 1 0 0 1 1-1 1 1 0 0 1 1 1z" />
    <path
       id="circle24"
       d="m-10 32.000641a1 1 0 0 1 -1 1 1 1 0 0 1 -1-1 1 1 0 0 1 1-1 1 1 0 0 1 1 1z" />
    <path
       id="circle28"
       d="m-10 40.000641a1 1 0 0 1 -1 1 1 1 0 0 1 -1-1 1 1 0 0 1 1-1 1 1 0 0 1 1 1z" />
    <path
       id="circle32"
       d="m-10 48.000641a1 1 0 0 1 -1 1 1 1 0 0 1 -1-1 1 1 0 0 1 1-1 1 1 0 0 1 1 1z" />
  </g>
  <path
     id="path36"
     d="m22.99966 12.99964h-6.00003c-.551974 0-.999911.448-.999911 1s.447937 1 .999911 1h6.00003c.551973 0 .999911-.448.999911-1s-.447938-1-.999911-1z"
     stroke-width=".434" />
  <path
     id="path40"
     d="m24.99968 22.99964h-10.00005c-.551974 0-.999911.448-.999911 1s.447937 1 .999911 1h10.00005c.551973 0 .999911-.448.999911-1s-.447938-1-.999911-1z"
     stroke-width=".434" />
  <path
     id="path44"
     d="m24.99968 30.99964h-10.00005c-.551974 0-.999911.448-.999911 1s.447937 1 .999911 1h10.00005c.551973 0 .999911-.448.999911-1s-.447938-1-.999911-1z"
     stroke-width=".434" />
  <path
     id="path48"
     d="m24.99968 38.99964h-10.00005c-.551974 0-.999911.448-.999911 1s.447937 1 .999911 1h10.00005c.551973 0 .999911-.448.999911-1s-.447938-1-.999911-1z"
     stroke-width=".434" />
  <path
     id="path52"
     d="m24.99968 46.99964h-10.00005c-.551974 0-.999911.448-.999911 1s.447937 1 .999911 1h10.00005c.551973 0 .999911-.448.999911-1s-.447938-1-.999911-1z"
     stroke-width=".434" />
</svg>
