<?xml version="1.0" encoding="UTF-8"?>
<svg width="512" height="512" enable-background="new 0 0 512 512" version="1.1" viewBox="0 0 512 512" xml:space="preserve" xmlns="http://www.w3.org/2000/svg"><g transform="matrix(3.7795 0 0 3.7795 558.55 171.79)" stroke-linecap="round"><circle cx="-100.44" cy="39.978" r="44.185" fill="#b7b7b7" stroke-width="3.9692"/><circle cx="-58.676" cy="-6.6682" r="34.396" fill="#b4c850" stroke-width="3.0898"/><g stroke-width="3.9688"><rect x="-89.958" y="8.041" width="22.415" height="20.358" fill="#b4c850"/><path d="m-69.384 51.897 9.0961-7.0386v-5.1978h45.047v24.256h-44.614v-6.9304z" fill="#fff"/><path d="m-128.4 74.529 5.8475-15.16 10.612-8.8795s-13.969-17.001 1.4077-27.397c15.377-10.396 32.053 6.8221 27.83 17.867-4.2232 11.045-5.4143 10.72-5.4143 10.72l12.778 10.829 2.9237 14.294s-15.884 8.4464-27.83 8.4464c-13.319-2e-6 -28.155-10.72-28.155-10.72z" fill="#fff"/></g></g><path d="m370.84 357.22c-5.563 0-10.074 4.539-10.074 10.103s4.511 10.074 10.074 10.074 10.074-4.511 10.074-10.074v-0.057c0-5.564-4.51-10.046-10.074-10.046z"/><path d="m415.83 357.22c-5.563 0-10.074 4.539-10.074 10.103s4.511 10.074 10.074 10.074 10.074-4.511 10.074-10.074v-0.057c0-5.564-4.511-10.046-10.074-10.046z"/><path d="m460.84 357.22c-5.563 0-10.074 4.539-10.074 10.103s4.511 10.074 10.074 10.074 10.074-4.511 10.074-10.074v-0.057c0-5.564-4.51-10.046-10.074-10.046z"/><path d="m250.38 194.83c0 10.094 8.212 18.306 18.305 18.306h28.006c6.126 0 11.545-3.036 14.87-7.67 8.109 3.268 17.584 4.948 25.552 4.948h35.233c25.692 0 46.594-20.89 46.594-46.567v-25.596c0-18.472-15.04-33.499-33.527-33.499h-9.332v-21.493c0-13.861-11.276-25.138-25.136-25.138-16.241 0-22.243 15.663-24.509 21.574l-8.706 22.83c-1.273 3.349-2.454 5.266-3.893 6.375-2.59-6.978-9.288-11.972-17.146-11.972h-28.006c-10.093 0-18.305 8.224-18.305 18.334zm64.616-65.087c7.475-1.445 16.053-5.966 21.425-20.102l8.696-22.803c3.34-8.716 5.083-8.716 5.827-8.716 2.832 0 5.137 2.305 5.137 5.138v31.493c0 5.522 4.478 10 10 10h19.332c7.459 0 13.527 6.056 13.527 13.499v25.596c0 14.649-11.931 26.567-26.595 26.567h-35.233c-8.932 0-17.676-2.792-22.116-5.438zm-44.616-12.815h24.616v76.209h-24.616z"/><path d="m488.989 309.982h-128.084c-.634-8.157-1.806-16.264-3.535-24.253 1.506-.229 3.009-.483 4.51-.761 75.922-14.173 126.189-87.473 112.053-163.398-6.851-36.793-27.615-68.712-58.47-89.878-30.857-21.169-68.11-29.048-104.897-22.182-11.313 2.106-22.27 5.557-32.567 10.259-5.024 2.293-7.238 8.225-4.944 13.249 2.293 5.025 8.228 7.237 13.249 4.944 8.817-4.024 18.212-6.981 27.927-8.791 31.537-5.882 63.467.868 89.919 19.014 26.449 18.144 44.25 45.507 50.122 77.046 12.119 65.089-30.973 127.928-96.051 140.076-21.758 4.041-44.143 2.022-64.739-5.833-2.632-1.003-5.566-.853-8.08.422-17.885 9.055-37.396 12.064-58.148 9 8.423-17.479 10.879-32.453 9.221-52.52-.134-1.623-.662-3.188-1.539-4.562-8.306-12.997-13.955-27.327-16.794-42.596-4.742-25.432-1.287-51.144 9.991-74.357 2.414-4.968.344-10.951-4.624-13.364-4.965-2.416-10.951-.344-13.364 4.624-8.903 18.323-13.613 37.979-14.029 57.961-5.119-.434-10.261-.66-15.382-.66-48.272 0-93.659 18.797-127.801 52.928-34.134 34.132-52.933 79.518-52.933 127.799 0 48.28 18.799 93.667 52.929 127.798 34.132 34.152 79.519 52.961 127.803 52.961 48.306 0 93.702-18.808 127.821-52.96 9.02-9.021 17.031-18.915 23.918-29.522 2.96 1.394 6.262 2.177 9.744 2.177h146.774c12.688 0 23.011-10.322 23.011-23.011v-68.598c0-12.689-10.322-23.012-23.011-23.012zm-255.922-20.307c3.401 7.461 5.184 15.627 5.184 23.904 0 31.717-25.803 57.519-57.519 57.519-31.717 0-57.52-25.802-57.52-57.519s25.804-57.52 57.52-57.52c9.61 0 18.865 2.343 27.172 6.813-1.322 2.573-2.786 5.231-4.441 8.041-1.593 2.704-1.824 5.999-.624 8.898 1.199 2.9 3.69 5.069 6.729 5.857 7.964 2.066 15.799 3.39 23.499 4.007zm-165.993 148.132c-62.672-62.672-62.672-164.645-.001-227.315 30.363-30.355 70.728-47.072 113.66-47.072 5.475 0 10.977.288 16.437.844.356 2.873.774 5.745 1.309 8.614 3.152 16.959 9.285 32.935 18.24 47.528.578 8.859.139 16.324-1.602 23.681-10.615-5.272-22.292-8.028-34.385-8.028-42.745 0-77.52 34.775-77.52 77.52 0 19.124 6.976 36.641 18.498 50.174-27.537 16.93-46.572 44.812-52.329 76.307-.774-.745-1.546-1.492-2.307-2.253zm113.658 47.101c-33.821 0-66.041-10.384-93.034-29.634 1.749-32.596 20.695-62.102 49.684-77.46 12.382 8.383 27.304 13.284 43.35 13.284 16.05 0 30.975-4.904 43.359-13.291 28.997 15.357 47.948 44.868 49.697 77.469-26.99 19.248-59.217 29.632-93.056 29.632zm113.675-47.097c-.76.76-1.53 1.506-2.302 2.249-5.757-31.502-24.798-59.388-52.343-76.316 11.517-13.532 18.489-31.045 18.489-50.164 0-8.209-1.31-16.341-3.83-24.077 12.465-1.25 24.504-4.529 36.045-9.847 15.064 5.21 30.869 7.77 46.742 7.656 1.751 7.472 2.984 15.063 3.651 22.714-12.044.705-21.627 10.736-21.627 22.968v7.046l-28.547 18.917c-2.795 1.853-4.476 4.982-4.476 8.336s1.681 6.483 4.476 8.336l28.547 18.917v7.047c0 1.256.105 2.487.299 3.689-6.919 11.814-15.344 22.749-25.124 32.529zm197.593-36.219c0 1.632-1.379 3.011-3.011 3.011h-146.774c-1.616 0-2.982-1.379-2.982-3.011v-12.416c0-3.354-1.681-6.483-4.476-8.336l-20.444-13.548 20.444-13.548c2.795-1.853 4.476-4.982 4.476-8.336v-12.415c0-1.633 1.366-3.012 2.982-3.012h146.774c1.632 0 3.011 1.379 3.011 3.012z"/><path d="m245.393 64.042c2.567 0 5.137-.979 7.093-2.936 3.905-3.905 3.905-10.237 0-14.142-3.906-3.904-10.236-3.904-14.142 0l-.028.028c-3.905 3.905-3.891 10.223.015 14.128 1.948 1.95 4.504 2.922 7.062 2.922z"/></svg>
