<?xml version="1.0" encoding="UTF-8" standalone="no"?>
<svg
   id="Layer_5"
   enable-background="new 0 0 64 64"
   height="512"
   viewBox="0 0 64 64"
   width="512"
   version="1.1"
   xml:space="preserve"
   xmlns="http://www.w3.org/2000/svg"
   xmlns:svg="http://www.w3.org/2000/svg"><defs
     id="defs97" /><rect
     style="fill:#ffffff;fill-opacity:1;stroke-width:0.122455"
     id="rect1114"
     width="25.16954"
     height="23.60903"
     x="36.395157"
     y="2.0135636" /><rect
     style="fill:#ffffff;fill-opacity:1;stroke-width:0.122455"
     id="rect323"
     width="25.16954"
     height="23.60903"
     x="2.4666145"
     y="2.0639026" /><rect
     style="fill:#ffffff;fill-opacity:1;stroke-width:0.125"
     id="rect1112"
     width="11.426971"
     height="15.554776"
     x="50.288742"
     y="41.173981" /><rect
     style="fill:#ffffff;fill-opacity:1;stroke-width:0.125"
     id="rect1110"
     width="11.426971"
     height="15.554776"
     x="2.1645806"
     y="41.425674" /><path
     style="fill:#b8c661;fill-opacity:1;stroke-width:0.125"
     d="m 20.336989,38.761092 -0.302035,20.236312 c 0,0 4.278822,3.423057 10.923581,3.2217 6.644759,-0.201357 13.1385,-2.869328 13.1385,-2.869328 L 43.895679,38.761092 c 0,0 -4.882892,-2.970006 -11.729007,-2.919666 -6.846115,0.05034 -11.829683,2.919666 -11.829683,2.919666 z"
     id="path1108" /><path
     style="fill:#b7b7b7;fill-opacity:1;stroke-width:0.125"
     d="M 42.788219,13.943925 V 8.1549311 h 4.127805 V 5.7889944 h 4.178143 v 4.4298386 h 4.127805 v 3.876109 z"
     id="path1170" /><rect
     style="fill:#b7b7b7;fill-opacity:1;stroke-width:0.125"
     id="rect2265"
     width="25.279068"
     height="7.2478447"
     x="2.2980971"
     y="2.2980971" /><g
     id="g92"><path
       d="m53 44h6v2h-6z"
       id="path54" /><path
       d="m53 48h6v2h-6z"
       id="path56" /><path
       d="m53 52h6v2h-6z"
       id="path58" /><path
       d="m5 44h6v2h-6z"
       id="path60" /><path
       d="m5 48h6v2h-6z"
       id="path62" /><path
       d="m5 52h6v2h-6z"
       id="path64" /><path
       d="m56 9h-4v-4h-6v2h-4v6h-2v2h18v-2h-2zm-2 2v2h-2v-2zm-4-4v2 4h-2v-6zm-6 2h2v4h-2z"
       id="path66" /><path
       d="m40 17h4v2h-4z"
       id="path68" /><path
       d="m46 17h12v2h-12z"
       id="path70" /><path
       d="m40 21h18v2h-18z"
       id="path72" /><path
       d="m13 5h2v2h-2z"
       id="path74" /><path
       d="m5 5h2v2h-2z"
       id="path76" /><path
       d="m9 5h2v2h-2z"
       id="path78" /><path
       d="m11 13h-6v6h6zm-2 4h-2v-2h2z"
       id="path80" /><path
       d="m13 13h12v2h-12z"
       id="path82" /><path
       d="m13 17h12v2h-12z"
       id="path84" /><path
       d="m5 21h2v2h-2z"
       id="path86" /><path
       d="m9 21h16v2h-16z"
       id="path88" /><path
       d="m50 33v-6h10c1.654 0 3-1.346 3-3v-20c0-1.654-1.346-3-3-3h-22c-1.654 0-3 1.346-3 3v20c0 1.654 1.346 3 3 3h10v4h-11v4.321c-1.506-.207-3.18-.321-5-.321s-3.494.114-5 .321v-4.321h-11v-4h10c1.654 0 3-1.346 3-3v-20c0-1.654-1.346-3-3-3h-22c-1.654 0-3 1.346-3 3v20c0 1.654 1.346 3 3 3h10v6h11v2.676c-3.742.827-6 2.362-6 4.324v8h-4v-5c0-1.654-1.346-3-3-3h-8c-1.654 0-3 1.346-3 3v12c0 1.654 1.346 3 3 3h8c1.654 0 3-1.346 3-3v-5h4v8c0 2.991 5.224 5 13 5s13-2.009 13-5v-8h4v5c0 1.654 1.346 3 3 3h8c1.654 0 3-1.346 3-3v-12c0-1.654-1.346-3-3-3h-8c-1.654 0-3 1.346-3 3v5h-4v-8c0-1.962-2.258-3.497-6-4.324v-2.676zm-13-9v-20c0-.551.449-1 1-1h22c.551 0 1 .449 1 1v20c0 .551-.449 1-1 1h-22c-.551 0-1-.449-1-1zm-33-21h22c.551 0 1 .449 1 1v5h-24v-5c0-.551.449-1 1-1zm-1 21v-13h24v13c0 .551-.449 1-1 1h-22c-.551 0-1-.449-1-1zm10 31c0 .551-.449 1-1 1h-8c-.551 0-1-.449-1-1v-12c0-.551.449-1 1-1h8c.551 0 1 .449 1 1zm38-12c0-.551.449-1 1-1h8c.551 0 1 .449 1 1v12c0 .551-.449 1-1 1h-8c-.551 0-1-.449-1-1zm-19 18c-7.678 0-11-1.987-11-3v-3.146c2.202 1.344 6.09 2.146 11 2.146s8.798-.802 11-2.146v3.146c0 1.013-3.322 3-11 3zm0-6c-7.678 0-11-1.987-11-3v-3.146c2.202 1.344 6.09 2.146 11 2.146s8.798-.802 11-2.146v3.146c0 1.013-3.322 3-11 3zm0-6c-7.678 0-11-1.987-11-3v-3.146c2.202 1.344 6.09 2.146 11 2.146s8.798-.802 11-2.146v3.146c0 1.013-3.322 3-11 3zm11-9c0 1.013-3.322 3-11 3s-11-1.987-11-3c0-.622 1.258-1.609 4-2.28v2.28h2v-2.667c1.4-.206 3.06-.333 5-.333s3.6.127 5 .333v2.667h2v-2.28c2.742.671 4 1.658 4 2.28z"
       id="path90" /></g></svg>
