<?xml version="1.0" encoding="UTF-8"?>
<svg width="512" height="512" version="1.1" viewBox="0 0 512 512" xml:space="preserve" xmlns="http://www.w3.org/2000/svg"><rect x="271.5" y="107.5" width="210" height="80" ry="15" fill="#b4c850" stroke="#000" stroke-width="15"/><g transform="translate(-539.74 -31.856)" fill="#fff" stroke="#000" stroke-width="15"><circle cx="595.24" cy="171.36" r="28"/><g stroke-linecap="round"><path d="m629.24 171.36h62.457"/><path d="m655.24 172.36v20.189"/><path d="m676.24 172.36v30.303"/></g></g><g><rect x="174" y="140" width="15" height="15" ry="0"/><rect x="204" y="140" width="15" height="15" ry="0"/><rect x="234" y="140" width="15" height="15" ry="0"/></g><rect x="271.5" y="227.5" width="210" height="80" ry="15" fill="#b4c850" stroke="#000" stroke-width="15"/><g transform="translate(-539.74 88.144)" fill="#fff" stroke="#000" stroke-width="15"><circle cx="595.24" cy="171.36" r="28"/><path d="m629.24 171.36h62.457" stroke-linecap="round"/><path d="m664.24 172.36v26.303" stroke-linecap="round"/></g><g><rect x="174" y="260" width="15" height="15" ry="0"/><rect x="204" y="260" width="15" height="15" ry="0"/><rect x="234" y="260" width="15" height="15" ry="0"/></g><rect x="271.5" y="347.5" width="210" height="80" ry="15" fill="#b4c850" stroke="#000" stroke-width="15"/><g transform="translate(0,13)" fill="#fff" stroke="#000" stroke-width="15"><circle cx="55.5" cy="366.5" r="28"/><g stroke-linecap="round"><path d="m89.5 366.5h62.457"/><path d="m136.5 367.5v18.189"/><path d="m115.5 367.5v30.303"/></g></g><g fill="none" stroke="#000" stroke-linecap="round" stroke-width="15"><path d="m300.43 134.19h65.035"/><path d="m300.43 158.19h25.035"/><path d="m300.43 254.19h45.035"/><path d="m300.43 278.19h85.035"/><path d="m300.43 374.19h65.035"/><path d="m300.43 398.19h45.035"/></g><g><rect x="174" y="380" width="15" height="15" ry="0"/><rect x="204" y="380" width="15" height="15" ry="0"/><rect x="234" y="380" width="15" height="15" ry="0"/></g></svg>
