
<svg xmlns="http://www.w3.org/2000/svg" viewBox="0 0 1519.7 552.22">
<defs><style>.cls-1{fill:#577138;}.cls-2{fill:#dde072;}.cls-3{fill:#a3b34f;}.cls-4{fill:#5e3108;}</style></defs>
<title>ArangoOasis-WhiteBG-Right-RGB</title>
<path class="cls-4" d="M257.66 204.02h24v-4.65l-1.67-60v-10.45h-13.25v3.41a222.29 222.29 0 01-9.08 40.88z"/>
<path class="cls-1" d="M250.64 326.5H87a87 87 0 114.66-173.88c18.25-24.83 46.45-39.39 77.16-39.39a95 95 0 0166.32 27 100.08 100.08 0 0128.59 52.79 67.37 67.37 0 01-13.09 133.48z"/>
<path class="cls-2" d="M96.6,183.3a58,58,0,0,0-9.6-.8,57,57,0,0,0,0,114H250.64a37.37,37.37,0,0,0,0-74.73H236.42l-.95-14c-2.48-36.21-31.75-64.57-66.65-64.57-23.29,0-44.53,12.32-56.83,33L106.73,185Z"/>
<path class="cls-1" d="M1227.72,162.42v19.81l17.44,3.37V303.19l-17.44,3.38v19.69h73.7q30,0,49.52-19T1370.4,258V230.84q0-30-19.46-49.18t-49.52-19.24h-73.7Zm151.89,0v19.81l17.44,3.37V303.19l-17.44,3.38v19.69h80.57q28.47,0,44-12t15.52-35.67a40.05,40.05,0,0,0-7.42-24q-7.32-10.35-22.06-13.5,11.47-4.5,17.44-13.39a35.57,35.57,0,0,0,6.08-20.37q0-22.4-16.2-33.65t-45.13-11.25h-72.8ZM1278,187.74h21.72q17.65,0,27.68,11.93t10,30.94V258q0,19.25-10,31.16t-27.68,11.93H1278Zm151.89,0h22.5q14.19,0,21.27,5.4t7.2,16.76q0,10.36-7.09,15.76t-20.25,5.4h-23.63Zm0,66h32.74q12.6,0,18.46,6.42t5.85,18.34q0,11.15-6.87,16.88t-19.91,5.62h-30.27Z"/>
<path class="cls-3" d="M487,162.42,437.19,304.88l-11.7,1.69v19.69H481.3V306.57l-11.36-2,10.64-33.26h46l10.87,33.26-11.37,2v19.69H581.9V306.57l-11.7-1.69L520.69,162.42Zm16.32,37.7H504l15,47H488.32Zm540.84,1.72-2.74,18a39.53,39.53,0,0,0-13.28-12.94,34.52,34.52,0,0,0-18-4.62q-22.62,0-35.22,17.67T962.47,266.4v2.36q0,26.89,12.49,43.43t35,16.44a37.32,37.32,0,0,0,16.76-3.61,36.87,36.87,0,0,0,12.72-10.46v8q0,13.05-6,20.36t-18,7.32a66.62,66.62,0,0,1-16.65-2,98.31,98.31,0,0,1-15.76-5.29L977,366a88.83,88.83,0,0,0,19.14,6.86,80.58,80.58,0,0,0,19.57,2.6q26.44,0,41.53-14.41t15.19-38.37v-21l0,.08V225l17.44-3.38V201.84Zm-373.63.41a24.64,24.64,0,0,0-15.64,5.3,38.22,38.22,0,0,0-11,14.74l-1.46-17.79H594.39v19.81l17.44,3.38v75.5l-15.75,3.38v19.69h64.36V306.57l-15.75-3.38V244a18.21,18.21,0,0,1,7.2-8,23.07,23.07,0,0,1,11.93-2.81l13.51.34,3.48-29.94a30.44,30.44,0,0,0-4.83-.9A34.32,34.32,0,0,0,670.57,202.25Zm72.14,0a76.81,76.81,0,0,0-22.31,3.21,67.6,67.6,0,0,0-10.1,3.48c-12.92,5.72-17.46,10.52-17.46,10.52l15.57,20.59s5-5.36,19-11.37a36.22,36.22,0,0,1,13.11-2.46q9.9,0,15,4.84t5.07,13.62v10.39H743.83c-17.71,0-31.13,4.65-40.28,10.88s-13.74,15-13.74,26.44q0,16.77,10.47,26.55t28.47,9.69a42.17,42.17,0,0,0,19.13-4.17,45,45,0,0,0,14.29-10.92,49.6,49.6,0,0,0,1.58,6.53,60.14,60.14,0,0,0,2.36,6.19H804V306.57l-10-1.35a43.39,43.39,0,0,1-.45-4.73V244.9q0-20.47-14.18-31.5t-36.68-11.15m153.25,0a38.82,38.82,0,0,0-19.91,5.18,44.47,44.47,0,0,0-15,14.52l-1.46-17.45h-48v19.81L829,227.69v75.5l-15.75,3.38v19.69h61.89V306.57l-13.28-3.38V237.93a23.62,23.62,0,0,1,8.67-7.43,24.91,24.91,0,0,1,11.7-2.7q10,0,15,5.17t4.95,17.34v52.88l-14.06,3.38v19.69h62.79V306.57l-15.76-3.38v-53q0-24.75-10.35-36.34T896,202.25Zm257.26,0q-26.9,0-42.21,17.45t-15.19,44.56v2.36q0,27.45,15.19,44.79t42.43,17.22q26.77,0,42-17.22t15.31-44.79v-2.36q0-27.34-15.31-44.67t-42.19-17.34m0,25.32q12.83,0,18.79,10.24t6,26.45v2.36q0,16.54-6,26.67t-18.57,10.13q-13.05,0-18.91-10t-5.85-26.78v-2.36q0-16.2,5.85-26.45t18.69-10.24m-134.71.23a24.23,24.23,0,0,1,12.49,3,22.58,22.58,0,0,1,8.44,8.55v52.88a21.48,21.48,0,0,1-8.44,8.11,27.25,27.25,0,0,1-12.72,2.7q-12.15,0-17.55-9.11t-5.41-25.21V266.4q0-17.22,5.52-27.91t17.67-10.69M743.83,273H760.6v20.11a26.69,26.69,0,0,1-9.46,8.1,28.88,28.88,0,0,1-13.5,3.15q-7.1,0-11.14-3.49t-3.94-9.68c0-4.57,1.8-10,5.4-13.24s8.89-5,15.87-5"/>
<path class="cls-1" d="M396.34,122.91a57.89,57.89,0,0,0-10.69-25.78,62.71,62.71,0,0,0-17.32-15.82C354.86,72.7,337.67,69.76,322,72.64a60.23,60.23,0,0,0-26.67,12c-2.17-22.49-13.24-43.82-29.77-59.14S227.2.25,204.36,0a73.39,73.39,0,0,0-31,6.39,56.51,56.51,0,0,0-13.49,8.47,2.14,2.14,0,0,0-1.06,1.93,1.83,1.83,0,0,0,1.54,1.51c1.28.32,2.62.51,3.92.76a139.48,139.48,0,0,1,14.56,3.34c4.44,1.37,8.81,2.76,13.18,4.32A128.49,128.49,0,0,1,214.91,38,148.89,148.89,0,0,1,242,59.21q3.08,3,6,6.18a49.69,49.69,0,0,0-34.76.41,45.06,45.06,0,0,0-23.43,21.52A5.43,5.43,0,0,0,189,89.1a1.5,1.5,0,0,0,1.47,1.57c1.38.19,2.8.22,4.19.31A83.75,83.75,0,0,1,207,92.76a93.23,93.23,0,0,1,32.26,13.66c10,6.66,18.66,15.23,26.35,24.46,1.89,2.26,3.64,4.64,5.34,7.05.61.86,1.27,2.44,2.5,2.44a27.1,27.1,0,0,0,4.44-.68,103.87,103.87,0,0,1,18.38-1.52c12.11.09,24,2.29,34.95,7.66a69.66,69.66,0,0,1,12.55,8c1.2.95,2.34,2,3.51,3a6.77,6.77,0,0,0,1.21,1c1,.54,1.56-.36,1.83-1.18A35.52,35.52,0,0,0,348.1,129a40.35,40.35,0,0,0-22.93-19.09,43.29,43.29,0,0,0-7.6-1.8,71.09,71.09,0,0,1,32.07,2.38,98.91,98.91,0,0,1,14.13,5.75c8.29,4,15.72,9.5,23,15.09,1.12.87,2.18,1.78,3.26,2.7s2.29,1.94,3.44,2.9c.84.69,2,1.56,2.9.34a4.1,4.1,0,0,0,.38-2c.11-1.24.18-2.47.2-3.7A59.25,59.25,0,0,0,396.34,122.91Z"/>
<circle class="cls-4" cx="169.23" cy="209.86" r="40"/>
<path class="cls-1" d="M1070.1,441.59a60.49,60.49,0,0,0-29.65-7.38A58.21,58.21,0,0,0,988.89,464a61.77,61.77,0,0,0,.6,59.9,56,56,0,0,0,21.45,20.94,60.3,60.3,0,0,0,29.51,7.37,58.32,58.32,0,0,0,30.62-8.19,57.62,57.62,0,0,0,21.08-21.61,61.77,61.77,0,0,0-.6-59.9A56,56,0,0,0,1070.1,441.59Zm4.77,73.83a38.14,38.14,0,0,1-14.38,14.9,39.26,39.26,0,0,1-20,5.21,38.06,38.06,0,0,1-34.72-20.93,46.22,46.22,0,0,1-4.92-21.38,45.17,45.17,0,0,1,5.29-22.05,38.12,38.12,0,0,1,14.31-15,40.79,40.79,0,0,1,40.82.37,38,38,0,0,1,14.08,15.28,46.19,46.19,0,0,1,4.92,21.38A45.14,45.14,0,0,1,1074.87,515.42Z"/>
<path class="cls-1" d="M1166.5,436.6l-45.45,113.24H1140l11.92-31.74h48.27l11.92,31.74h19.82L1186.47,436.6Zm-9.09,66.75,18.48-49.47,18.62,49.47Z"/>
<path class="cls-1" d="M1323.69,493.14q-8-5.13-22-9.61a87.26,87.26,0,0,1-13.11-5.06,18.1,18.1,0,0,1-6.71-5.37,13.22,13.22,0,0,1-2.08-7.75q0-7.29,5.51-11.17t15.94-3.87a56.12,56.12,0,0,1,15.13,2.23,64.72,64.72,0,0,1,14.52,6l2.84-16.24a63.08,63.08,0,0,0-15.5-5.89,73.34,73.34,0,0,0-17.43-2.16,50.77,50.77,0,0,0-20.79,4,30.83,30.83,0,0,0-13.56,11,28.58,28.58,0,0,0-4.69,16.16q0,13.27,7.75,21.16t26.22,13.71q14.16,4.47,19.3,8.57a13.15,13.15,0,0,1,5.14,10.8,14,14,0,0,1-6.26,12.22q-6.25,4.32-17.73,4.32a64.46,64.46,0,0,1-17.73-2.68,67,67,0,0,1-16.69-7.15L1259.62,543q6.27,4,16.77,6.63a84.76,84.76,0,0,0,20.48,2.61q13,0,22.43-4.1a32.47,32.47,0,0,0,14.45-11.47,29.69,29.69,0,0,0,5-17.06,30.63,30.63,0,0,0-3.5-14.9Q1331.75,498.29,1323.69,493.14Z"/>
<rect class="cls-1" x="1378.97" y="436.6" width="18.63" height="113.24"/>
<path class="cls-1" d="M1511.8,504.69q-3.49-6.4-11.55-11.55t-22-9.61a87.26,87.26,0,0,1-13.11-5.06,18.1,18.1,0,0,1-6.71-5.37,13.22,13.22,0,0,1-2.08-7.75q0-7.29,5.51-11.17t15.94-3.87a56.12,56.12,0,0,1,15.13,2.23,65,65,0,0,1,14.53,6l2.83-16.24a63.08,63.08,0,0,0-15.5-5.89,73.34,73.34,0,0,0-17.43-2.16,50.77,50.77,0,0,0-20.79,4,30.83,30.83,0,0,0-13.56,11,28.58,28.58,0,0,0-4.69,16.16q0,13.27,7.75,21.16t26.22,13.71q14.16,4.47,19.3,8.57a13.15,13.15,0,0,1,5.14,10.8,14,14,0,0,1-6.26,12.22q-6.26,4.32-17.73,4.32a64.52,64.52,0,0,1-17.73-2.68,67,67,0,0,1-16.69-7.15L1436.18,543q6.27,4,16.77,6.63a84.76,84.76,0,0,0,20.48,2.61q13,0,22.43-4.1a32.42,32.42,0,0,0,14.45-11.47,29.69,29.69,0,0,0,5-17.06A30.63,30.63,0,0,0,1511.8,504.69Z"/>
<path class="cls-3" d="M239.19,81.35c-21.13-8.17-44.17,2.3-43.94,4.33.21,1.86,19.78-4.43,40.63,4.51,26.66,11.42,35.79,39.33,37.32,38.42C274.9,127.62,266.56,91.93,239.19,81.35Z"/>
<path class="cls-3" d="M219.57,19.43c-23-10.11-47.3-7.48-47.68-5.17s26.62,3,54,19.91c36,22.28,47.27,57.29,48.64,56.49C276.17,89.7,262,38.09,219.57,19.43Z"/>
<path class="cls-3" d="M332,87.4c-26.42.74-46.21,23.2-45.19,24.9.93,1.54,18.41-15,43.66-15.32,35-.47,59.11,30.46,60.33,29S367.09,86.42,332,87.4Z"/>
<path class="cls-3" d="M325.46,124.75c-23.23-10.54-47.37,7.19-46.91,8.8.39,1.35,18.19-7.67,39.45-1.91,13.12,3.56,22.81,11.46,29.49,18.57C346.48,147.17,341.05,131.81,325.46,124.75Z"/>
</svg>